G04 #@! TF.GenerationSoftware,KiCad,Pcbnew,5.0.2-bee76a0~70~ubuntu16.04.1*
G04 #@! TF.CreationDate,2019-03-12T22:28:51+00:00*
G04 #@! TF.ProjectId,project,70726f6a-6563-4742-9e6b-696361645f70,rev?*
G04 #@! TF.SameCoordinates,Original*
G04 #@! TF.FileFunction,Soldermask,Top*
G04 #@! TF.FilePolarity,Negative*
%FSLAX46Y46*%
G04 Gerber Fmt 4.6, Leading zero omitted, Abs format (unit mm)*
G04 Created by KiCad (PCBNEW 5.0.2-bee76a0~70~ubuntu16.04.1) date Tue 12 Mar 2019 22:28:51 GMT*
%MOMM*%
%LPD*%
G01*
G04 APERTURE LIST*
%ADD10C,0.100000*%
%ADD11C,0.950000*%
%ADD12R,1.700000X1.700000*%
%ADD13O,1.700000X1.700000*%
G04 APERTURE END LIST*
D10*
G04 #@! TO.C,C1*
G36*
X156239183Y-97120383D02*
X156262238Y-97123802D01*
X156284847Y-97129466D01*
X156306791Y-97137318D01*
X156327861Y-97147283D01*
X156347852Y-97159265D01*
X156366572Y-97173149D01*
X156383842Y-97188801D01*
X156399494Y-97206071D01*
X156413378Y-97224791D01*
X156425360Y-97244782D01*
X156435325Y-97265852D01*
X156443177Y-97287796D01*
X156448841Y-97310405D01*
X156452260Y-97333460D01*
X156453404Y-97356739D01*
X156453404Y-97831739D01*
X156452260Y-97855018D01*
X156448841Y-97878073D01*
X156443177Y-97900682D01*
X156435325Y-97922626D01*
X156425360Y-97943696D01*
X156413378Y-97963687D01*
X156399494Y-97982407D01*
X156383842Y-97999677D01*
X156366572Y-98015329D01*
X156347852Y-98029213D01*
X156327861Y-98041195D01*
X156306791Y-98051160D01*
X156284847Y-98059012D01*
X156262238Y-98064676D01*
X156239183Y-98068095D01*
X156215904Y-98069239D01*
X155640904Y-98069239D01*
X155617625Y-98068095D01*
X155594570Y-98064676D01*
X155571961Y-98059012D01*
X155550017Y-98051160D01*
X155528947Y-98041195D01*
X155508956Y-98029213D01*
X155490236Y-98015329D01*
X155472966Y-97999677D01*
X155457314Y-97982407D01*
X155443430Y-97963687D01*
X155431448Y-97943696D01*
X155421483Y-97922626D01*
X155413631Y-97900682D01*
X155407967Y-97878073D01*
X155404548Y-97855018D01*
X155403404Y-97831739D01*
X155403404Y-97356739D01*
X155404548Y-97333460D01*
X155407967Y-97310405D01*
X155413631Y-97287796D01*
X155421483Y-97265852D01*
X155431448Y-97244782D01*
X155443430Y-97224791D01*
X155457314Y-97206071D01*
X155472966Y-97188801D01*
X155490236Y-97173149D01*
X155508956Y-97159265D01*
X155528947Y-97147283D01*
X155550017Y-97137318D01*
X155571961Y-97129466D01*
X155594570Y-97123802D01*
X155617625Y-97120383D01*
X155640904Y-97119239D01*
X156215904Y-97119239D01*
X156239183Y-97120383D01*
X156239183Y-97120383D01*
G37*
D11*
X155928404Y-97594239D03*
D10*
G36*
X157989183Y-97120383D02*
X158012238Y-97123802D01*
X158034847Y-97129466D01*
X158056791Y-97137318D01*
X158077861Y-97147283D01*
X158097852Y-97159265D01*
X158116572Y-97173149D01*
X158133842Y-97188801D01*
X158149494Y-97206071D01*
X158163378Y-97224791D01*
X158175360Y-97244782D01*
X158185325Y-97265852D01*
X158193177Y-97287796D01*
X158198841Y-97310405D01*
X158202260Y-97333460D01*
X158203404Y-97356739D01*
X158203404Y-97831739D01*
X158202260Y-97855018D01*
X158198841Y-97878073D01*
X158193177Y-97900682D01*
X158185325Y-97922626D01*
X158175360Y-97943696D01*
X158163378Y-97963687D01*
X158149494Y-97982407D01*
X158133842Y-97999677D01*
X158116572Y-98015329D01*
X158097852Y-98029213D01*
X158077861Y-98041195D01*
X158056791Y-98051160D01*
X158034847Y-98059012D01*
X158012238Y-98064676D01*
X157989183Y-98068095D01*
X157965904Y-98069239D01*
X157390904Y-98069239D01*
X157367625Y-98068095D01*
X157344570Y-98064676D01*
X157321961Y-98059012D01*
X157300017Y-98051160D01*
X157278947Y-98041195D01*
X157258956Y-98029213D01*
X157240236Y-98015329D01*
X157222966Y-97999677D01*
X157207314Y-97982407D01*
X157193430Y-97963687D01*
X157181448Y-97943696D01*
X157171483Y-97922626D01*
X157163631Y-97900682D01*
X157157967Y-97878073D01*
X157154548Y-97855018D01*
X157153404Y-97831739D01*
X157153404Y-97356739D01*
X157154548Y-97333460D01*
X157157967Y-97310405D01*
X157163631Y-97287796D01*
X157171483Y-97265852D01*
X157181448Y-97244782D01*
X157193430Y-97224791D01*
X157207314Y-97206071D01*
X157222966Y-97188801D01*
X157240236Y-97173149D01*
X157258956Y-97159265D01*
X157278947Y-97147283D01*
X157300017Y-97137318D01*
X157321961Y-97129466D01*
X157344570Y-97123802D01*
X157367625Y-97120383D01*
X157390904Y-97119239D01*
X157965904Y-97119239D01*
X157989183Y-97120383D01*
X157989183Y-97120383D01*
G37*
D11*
X157678404Y-97594239D03*
G04 #@! TD*
D10*
G04 #@! TO.C,C2*
G36*
X158179183Y-102825383D02*
X158202238Y-102828802D01*
X158224847Y-102834466D01*
X158246791Y-102842318D01*
X158267861Y-102852283D01*
X158287852Y-102864265D01*
X158306572Y-102878149D01*
X158323842Y-102893801D01*
X158339494Y-102911071D01*
X158353378Y-102929791D01*
X158365360Y-102949782D01*
X158375325Y-102970852D01*
X158383177Y-102992796D01*
X158388841Y-103015405D01*
X158392260Y-103038460D01*
X158393404Y-103061739D01*
X158393404Y-103636739D01*
X158392260Y-103660018D01*
X158388841Y-103683073D01*
X158383177Y-103705682D01*
X158375325Y-103727626D01*
X158365360Y-103748696D01*
X158353378Y-103768687D01*
X158339494Y-103787407D01*
X158323842Y-103804677D01*
X158306572Y-103820329D01*
X158287852Y-103834213D01*
X158267861Y-103846195D01*
X158246791Y-103856160D01*
X158224847Y-103864012D01*
X158202238Y-103869676D01*
X158179183Y-103873095D01*
X158155904Y-103874239D01*
X157680904Y-103874239D01*
X157657625Y-103873095D01*
X157634570Y-103869676D01*
X157611961Y-103864012D01*
X157590017Y-103856160D01*
X157568947Y-103846195D01*
X157548956Y-103834213D01*
X157530236Y-103820329D01*
X157512966Y-103804677D01*
X157497314Y-103787407D01*
X157483430Y-103768687D01*
X157471448Y-103748696D01*
X157461483Y-103727626D01*
X157453631Y-103705682D01*
X157447967Y-103683073D01*
X157444548Y-103660018D01*
X157443404Y-103636739D01*
X157443404Y-103061739D01*
X157444548Y-103038460D01*
X157447967Y-103015405D01*
X157453631Y-102992796D01*
X157461483Y-102970852D01*
X157471448Y-102949782D01*
X157483430Y-102929791D01*
X157497314Y-102911071D01*
X157512966Y-102893801D01*
X157530236Y-102878149D01*
X157548956Y-102864265D01*
X157568947Y-102852283D01*
X157590017Y-102842318D01*
X157611961Y-102834466D01*
X157634570Y-102828802D01*
X157657625Y-102825383D01*
X157680904Y-102824239D01*
X158155904Y-102824239D01*
X158179183Y-102825383D01*
X158179183Y-102825383D01*
G37*
D11*
X157918404Y-103349239D03*
D10*
G36*
X158179183Y-101075383D02*
X158202238Y-101078802D01*
X158224847Y-101084466D01*
X158246791Y-101092318D01*
X158267861Y-101102283D01*
X158287852Y-101114265D01*
X158306572Y-101128149D01*
X158323842Y-101143801D01*
X158339494Y-101161071D01*
X158353378Y-101179791D01*
X158365360Y-101199782D01*
X158375325Y-101220852D01*
X158383177Y-101242796D01*
X158388841Y-101265405D01*
X158392260Y-101288460D01*
X158393404Y-101311739D01*
X158393404Y-101886739D01*
X158392260Y-101910018D01*
X158388841Y-101933073D01*
X158383177Y-101955682D01*
X158375325Y-101977626D01*
X158365360Y-101998696D01*
X158353378Y-102018687D01*
X158339494Y-102037407D01*
X158323842Y-102054677D01*
X158306572Y-102070329D01*
X158287852Y-102084213D01*
X158267861Y-102096195D01*
X158246791Y-102106160D01*
X158224847Y-102114012D01*
X158202238Y-102119676D01*
X158179183Y-102123095D01*
X158155904Y-102124239D01*
X157680904Y-102124239D01*
X157657625Y-102123095D01*
X157634570Y-102119676D01*
X157611961Y-102114012D01*
X157590017Y-102106160D01*
X157568947Y-102096195D01*
X157548956Y-102084213D01*
X157530236Y-102070329D01*
X157512966Y-102054677D01*
X157497314Y-102037407D01*
X157483430Y-102018687D01*
X157471448Y-101998696D01*
X157461483Y-101977626D01*
X157453631Y-101955682D01*
X157447967Y-101933073D01*
X157444548Y-101910018D01*
X157443404Y-101886739D01*
X157443404Y-101311739D01*
X157444548Y-101288460D01*
X157447967Y-101265405D01*
X157453631Y-101242796D01*
X157461483Y-101220852D01*
X157471448Y-101199782D01*
X157483430Y-101179791D01*
X157497314Y-101161071D01*
X157512966Y-101143801D01*
X157530236Y-101128149D01*
X157548956Y-101114265D01*
X157568947Y-101102283D01*
X157590017Y-101092318D01*
X157611961Y-101084466D01*
X157634570Y-101078802D01*
X157657625Y-101075383D01*
X157680904Y-101074239D01*
X158155904Y-101074239D01*
X158179183Y-101075383D01*
X158179183Y-101075383D01*
G37*
D11*
X157918404Y-101599239D03*
G04 #@! TD*
D10*
G04 #@! TO.C,C3*
G36*
X156189183Y-101070383D02*
X156212238Y-101073802D01*
X156234847Y-101079466D01*
X156256791Y-101087318D01*
X156277861Y-101097283D01*
X156297852Y-101109265D01*
X156316572Y-101123149D01*
X156333842Y-101138801D01*
X156349494Y-101156071D01*
X156363378Y-101174791D01*
X156375360Y-101194782D01*
X156385325Y-101215852D01*
X156393177Y-101237796D01*
X156398841Y-101260405D01*
X156402260Y-101283460D01*
X156403404Y-101306739D01*
X156403404Y-101881739D01*
X156402260Y-101905018D01*
X156398841Y-101928073D01*
X156393177Y-101950682D01*
X156385325Y-101972626D01*
X156375360Y-101993696D01*
X156363378Y-102013687D01*
X156349494Y-102032407D01*
X156333842Y-102049677D01*
X156316572Y-102065329D01*
X156297852Y-102079213D01*
X156277861Y-102091195D01*
X156256791Y-102101160D01*
X156234847Y-102109012D01*
X156212238Y-102114676D01*
X156189183Y-102118095D01*
X156165904Y-102119239D01*
X155690904Y-102119239D01*
X155667625Y-102118095D01*
X155644570Y-102114676D01*
X155621961Y-102109012D01*
X155600017Y-102101160D01*
X155578947Y-102091195D01*
X155558956Y-102079213D01*
X155540236Y-102065329D01*
X155522966Y-102049677D01*
X155507314Y-102032407D01*
X155493430Y-102013687D01*
X155481448Y-101993696D01*
X155471483Y-101972626D01*
X155463631Y-101950682D01*
X155457967Y-101928073D01*
X155454548Y-101905018D01*
X155453404Y-101881739D01*
X155453404Y-101306739D01*
X155454548Y-101283460D01*
X155457967Y-101260405D01*
X155463631Y-101237796D01*
X155471483Y-101215852D01*
X155481448Y-101194782D01*
X155493430Y-101174791D01*
X155507314Y-101156071D01*
X155522966Y-101138801D01*
X155540236Y-101123149D01*
X155558956Y-101109265D01*
X155578947Y-101097283D01*
X155600017Y-101087318D01*
X155621961Y-101079466D01*
X155644570Y-101073802D01*
X155667625Y-101070383D01*
X155690904Y-101069239D01*
X156165904Y-101069239D01*
X156189183Y-101070383D01*
X156189183Y-101070383D01*
G37*
D11*
X155928404Y-101594239D03*
D10*
G36*
X156189183Y-102820383D02*
X156212238Y-102823802D01*
X156234847Y-102829466D01*
X156256791Y-102837318D01*
X156277861Y-102847283D01*
X156297852Y-102859265D01*
X156316572Y-102873149D01*
X156333842Y-102888801D01*
X156349494Y-102906071D01*
X156363378Y-102924791D01*
X156375360Y-102944782D01*
X156385325Y-102965852D01*
X156393177Y-102987796D01*
X156398841Y-103010405D01*
X156402260Y-103033460D01*
X156403404Y-103056739D01*
X156403404Y-103631739D01*
X156402260Y-103655018D01*
X156398841Y-103678073D01*
X156393177Y-103700682D01*
X156385325Y-103722626D01*
X156375360Y-103743696D01*
X156363378Y-103763687D01*
X156349494Y-103782407D01*
X156333842Y-103799677D01*
X156316572Y-103815329D01*
X156297852Y-103829213D01*
X156277861Y-103841195D01*
X156256791Y-103851160D01*
X156234847Y-103859012D01*
X156212238Y-103864676D01*
X156189183Y-103868095D01*
X156165904Y-103869239D01*
X155690904Y-103869239D01*
X155667625Y-103868095D01*
X155644570Y-103864676D01*
X155621961Y-103859012D01*
X155600017Y-103851160D01*
X155578947Y-103841195D01*
X155558956Y-103829213D01*
X155540236Y-103815329D01*
X155522966Y-103799677D01*
X155507314Y-103782407D01*
X155493430Y-103763687D01*
X155481448Y-103743696D01*
X155471483Y-103722626D01*
X155463631Y-103700682D01*
X155457967Y-103678073D01*
X155454548Y-103655018D01*
X155453404Y-103631739D01*
X155453404Y-103056739D01*
X155454548Y-103033460D01*
X155457967Y-103010405D01*
X155463631Y-102987796D01*
X155471483Y-102965852D01*
X155481448Y-102944782D01*
X155493430Y-102924791D01*
X155507314Y-102906071D01*
X155522966Y-102888801D01*
X155540236Y-102873149D01*
X155558956Y-102859265D01*
X155578947Y-102847283D01*
X155600017Y-102837318D01*
X155621961Y-102829466D01*
X155644570Y-102823802D01*
X155667625Y-102820383D01*
X155690904Y-102819239D01*
X156165904Y-102819239D01*
X156189183Y-102820383D01*
X156189183Y-102820383D01*
G37*
D11*
X155928404Y-103344239D03*
G04 #@! TD*
D10*
G04 #@! TO.C,C4*
G36*
X158189183Y-106195383D02*
X158212238Y-106198802D01*
X158234847Y-106204466D01*
X158256791Y-106212318D01*
X158277861Y-106222283D01*
X158297852Y-106234265D01*
X158316572Y-106248149D01*
X158333842Y-106263801D01*
X158349494Y-106281071D01*
X158363378Y-106299791D01*
X158375360Y-106319782D01*
X158385325Y-106340852D01*
X158393177Y-106362796D01*
X158398841Y-106385405D01*
X158402260Y-106408460D01*
X158403404Y-106431739D01*
X158403404Y-107006739D01*
X158402260Y-107030018D01*
X158398841Y-107053073D01*
X158393177Y-107075682D01*
X158385325Y-107097626D01*
X158375360Y-107118696D01*
X158363378Y-107138687D01*
X158349494Y-107157407D01*
X158333842Y-107174677D01*
X158316572Y-107190329D01*
X158297852Y-107204213D01*
X158277861Y-107216195D01*
X158256791Y-107226160D01*
X158234847Y-107234012D01*
X158212238Y-107239676D01*
X158189183Y-107243095D01*
X158165904Y-107244239D01*
X157690904Y-107244239D01*
X157667625Y-107243095D01*
X157644570Y-107239676D01*
X157621961Y-107234012D01*
X157600017Y-107226160D01*
X157578947Y-107216195D01*
X157558956Y-107204213D01*
X157540236Y-107190329D01*
X157522966Y-107174677D01*
X157507314Y-107157407D01*
X157493430Y-107138687D01*
X157481448Y-107118696D01*
X157471483Y-107097626D01*
X157463631Y-107075682D01*
X157457967Y-107053073D01*
X157454548Y-107030018D01*
X157453404Y-107006739D01*
X157453404Y-106431739D01*
X157454548Y-106408460D01*
X157457967Y-106385405D01*
X157463631Y-106362796D01*
X157471483Y-106340852D01*
X157481448Y-106319782D01*
X157493430Y-106299791D01*
X157507314Y-106281071D01*
X157522966Y-106263801D01*
X157540236Y-106248149D01*
X157558956Y-106234265D01*
X157578947Y-106222283D01*
X157600017Y-106212318D01*
X157621961Y-106204466D01*
X157644570Y-106198802D01*
X157667625Y-106195383D01*
X157690904Y-106194239D01*
X158165904Y-106194239D01*
X158189183Y-106195383D01*
X158189183Y-106195383D01*
G37*
D11*
X157928404Y-106719239D03*
D10*
G36*
X158189183Y-107945383D02*
X158212238Y-107948802D01*
X158234847Y-107954466D01*
X158256791Y-107962318D01*
X158277861Y-107972283D01*
X158297852Y-107984265D01*
X158316572Y-107998149D01*
X158333842Y-108013801D01*
X158349494Y-108031071D01*
X158363378Y-108049791D01*
X158375360Y-108069782D01*
X158385325Y-108090852D01*
X158393177Y-108112796D01*
X158398841Y-108135405D01*
X158402260Y-108158460D01*
X158403404Y-108181739D01*
X158403404Y-108756739D01*
X158402260Y-108780018D01*
X158398841Y-108803073D01*
X158393177Y-108825682D01*
X158385325Y-108847626D01*
X158375360Y-108868696D01*
X158363378Y-108888687D01*
X158349494Y-108907407D01*
X158333842Y-108924677D01*
X158316572Y-108940329D01*
X158297852Y-108954213D01*
X158277861Y-108966195D01*
X158256791Y-108976160D01*
X158234847Y-108984012D01*
X158212238Y-108989676D01*
X158189183Y-108993095D01*
X158165904Y-108994239D01*
X157690904Y-108994239D01*
X157667625Y-108993095D01*
X157644570Y-108989676D01*
X157621961Y-108984012D01*
X157600017Y-108976160D01*
X157578947Y-108966195D01*
X157558956Y-108954213D01*
X157540236Y-108940329D01*
X157522966Y-108924677D01*
X157507314Y-108907407D01*
X157493430Y-108888687D01*
X157481448Y-108868696D01*
X157471483Y-108847626D01*
X157463631Y-108825682D01*
X157457967Y-108803073D01*
X157454548Y-108780018D01*
X157453404Y-108756739D01*
X157453404Y-108181739D01*
X157454548Y-108158460D01*
X157457967Y-108135405D01*
X157463631Y-108112796D01*
X157471483Y-108090852D01*
X157481448Y-108069782D01*
X157493430Y-108049791D01*
X157507314Y-108031071D01*
X157522966Y-108013801D01*
X157540236Y-107998149D01*
X157558956Y-107984265D01*
X157578947Y-107972283D01*
X157600017Y-107962318D01*
X157621961Y-107954466D01*
X157644570Y-107948802D01*
X157667625Y-107945383D01*
X157690904Y-107944239D01*
X158165904Y-107944239D01*
X158189183Y-107945383D01*
X158189183Y-107945383D01*
G37*
D11*
X157928404Y-108469239D03*
G04 #@! TD*
D12*
G04 #@! TO.C,J1*
X163438404Y-117294239D03*
D13*
X160898404Y-117294239D03*
X158358404Y-117294239D03*
X155818404Y-117294239D03*
X153278404Y-117294239D03*
X150738404Y-117294239D03*
G04 #@! TD*
D12*
G04 #@! TO.C,J2*
X148038404Y-113484239D03*
D13*
X148038404Y-110944239D03*
X148038404Y-108404239D03*
X148038404Y-105864239D03*
X148038404Y-103324239D03*
X148038404Y-100784239D03*
X148038404Y-98244239D03*
X148038404Y-95704239D03*
X148038404Y-93164239D03*
X148038404Y-90624239D03*
G04 #@! TD*
G04 #@! TO.C,J3*
X165818404Y-90624239D03*
X165818404Y-93164239D03*
X165818404Y-95704239D03*
X165818404Y-98244239D03*
X165818404Y-100784239D03*
X165818404Y-103324239D03*
X165818404Y-105864239D03*
X165818404Y-108404239D03*
X165818404Y-110944239D03*
D12*
X165818404Y-113484239D03*
G04 #@! TD*
D10*
G04 #@! TO.C,R1*
G36*
X156189183Y-106195383D02*
X156212238Y-106198802D01*
X156234847Y-106204466D01*
X156256791Y-106212318D01*
X156277861Y-106222283D01*
X156297852Y-106234265D01*
X156316572Y-106248149D01*
X156333842Y-106263801D01*
X156349494Y-106281071D01*
X156363378Y-106299791D01*
X156375360Y-106319782D01*
X156385325Y-106340852D01*
X156393177Y-106362796D01*
X156398841Y-106385405D01*
X156402260Y-106408460D01*
X156403404Y-106431739D01*
X156403404Y-107006739D01*
X156402260Y-107030018D01*
X156398841Y-107053073D01*
X156393177Y-107075682D01*
X156385325Y-107097626D01*
X156375360Y-107118696D01*
X156363378Y-107138687D01*
X156349494Y-107157407D01*
X156333842Y-107174677D01*
X156316572Y-107190329D01*
X156297852Y-107204213D01*
X156277861Y-107216195D01*
X156256791Y-107226160D01*
X156234847Y-107234012D01*
X156212238Y-107239676D01*
X156189183Y-107243095D01*
X156165904Y-107244239D01*
X155690904Y-107244239D01*
X155667625Y-107243095D01*
X155644570Y-107239676D01*
X155621961Y-107234012D01*
X155600017Y-107226160D01*
X155578947Y-107216195D01*
X155558956Y-107204213D01*
X155540236Y-107190329D01*
X155522966Y-107174677D01*
X155507314Y-107157407D01*
X155493430Y-107138687D01*
X155481448Y-107118696D01*
X155471483Y-107097626D01*
X155463631Y-107075682D01*
X155457967Y-107053073D01*
X155454548Y-107030018D01*
X155453404Y-107006739D01*
X155453404Y-106431739D01*
X155454548Y-106408460D01*
X155457967Y-106385405D01*
X155463631Y-106362796D01*
X155471483Y-106340852D01*
X155481448Y-106319782D01*
X155493430Y-106299791D01*
X155507314Y-106281071D01*
X155522966Y-106263801D01*
X155540236Y-106248149D01*
X155558956Y-106234265D01*
X155578947Y-106222283D01*
X155600017Y-106212318D01*
X155621961Y-106204466D01*
X155644570Y-106198802D01*
X155667625Y-106195383D01*
X155690904Y-106194239D01*
X156165904Y-106194239D01*
X156189183Y-106195383D01*
X156189183Y-106195383D01*
G37*
D11*
X155928404Y-106719239D03*
D10*
G36*
X156189183Y-107945383D02*
X156212238Y-107948802D01*
X156234847Y-107954466D01*
X156256791Y-107962318D01*
X156277861Y-107972283D01*
X156297852Y-107984265D01*
X156316572Y-107998149D01*
X156333842Y-108013801D01*
X156349494Y-108031071D01*
X156363378Y-108049791D01*
X156375360Y-108069782D01*
X156385325Y-108090852D01*
X156393177Y-108112796D01*
X156398841Y-108135405D01*
X156402260Y-108158460D01*
X156403404Y-108181739D01*
X156403404Y-108756739D01*
X156402260Y-108780018D01*
X156398841Y-108803073D01*
X156393177Y-108825682D01*
X156385325Y-108847626D01*
X156375360Y-108868696D01*
X156363378Y-108888687D01*
X156349494Y-108907407D01*
X156333842Y-108924677D01*
X156316572Y-108940329D01*
X156297852Y-108954213D01*
X156277861Y-108966195D01*
X156256791Y-108976160D01*
X156234847Y-108984012D01*
X156212238Y-108989676D01*
X156189183Y-108993095D01*
X156165904Y-108994239D01*
X155690904Y-108994239D01*
X155667625Y-108993095D01*
X155644570Y-108989676D01*
X155621961Y-108984012D01*
X155600017Y-108976160D01*
X155578947Y-108966195D01*
X155558956Y-108954213D01*
X155540236Y-108940329D01*
X155522966Y-108924677D01*
X155507314Y-108907407D01*
X155493430Y-108888687D01*
X155481448Y-108868696D01*
X155471483Y-108847626D01*
X155463631Y-108825682D01*
X155457967Y-108803073D01*
X155454548Y-108780018D01*
X155453404Y-108756739D01*
X155453404Y-108181739D01*
X155454548Y-108158460D01*
X155457967Y-108135405D01*
X155463631Y-108112796D01*
X155471483Y-108090852D01*
X155481448Y-108069782D01*
X155493430Y-108049791D01*
X155507314Y-108031071D01*
X155522966Y-108013801D01*
X155540236Y-107998149D01*
X155558956Y-107984265D01*
X155578947Y-107972283D01*
X155600017Y-107962318D01*
X155621961Y-107954466D01*
X155644570Y-107948802D01*
X155667625Y-107945383D01*
X155690904Y-107944239D01*
X156165904Y-107944239D01*
X156189183Y-107945383D01*
X156189183Y-107945383D01*
G37*
D11*
X155928404Y-108469239D03*
G04 #@! TD*
D10*
G04 #@! TO.C,R2*
G36*
X156489183Y-90120383D02*
X156512238Y-90123802D01*
X156534847Y-90129466D01*
X156556791Y-90137318D01*
X156577861Y-90147283D01*
X156597852Y-90159265D01*
X156616572Y-90173149D01*
X156633842Y-90188801D01*
X156649494Y-90206071D01*
X156663378Y-90224791D01*
X156675360Y-90244782D01*
X156685325Y-90265852D01*
X156693177Y-90287796D01*
X156698841Y-90310405D01*
X156702260Y-90333460D01*
X156703404Y-90356739D01*
X156703404Y-90831739D01*
X156702260Y-90855018D01*
X156698841Y-90878073D01*
X156693177Y-90900682D01*
X156685325Y-90922626D01*
X156675360Y-90943696D01*
X156663378Y-90963687D01*
X156649494Y-90982407D01*
X156633842Y-90999677D01*
X156616572Y-91015329D01*
X156597852Y-91029213D01*
X156577861Y-91041195D01*
X156556791Y-91051160D01*
X156534847Y-91059012D01*
X156512238Y-91064676D01*
X156489183Y-91068095D01*
X156465904Y-91069239D01*
X155890904Y-91069239D01*
X155867625Y-91068095D01*
X155844570Y-91064676D01*
X155821961Y-91059012D01*
X155800017Y-91051160D01*
X155778947Y-91041195D01*
X155758956Y-91029213D01*
X155740236Y-91015329D01*
X155722966Y-90999677D01*
X155707314Y-90982407D01*
X155693430Y-90963687D01*
X155681448Y-90943696D01*
X155671483Y-90922626D01*
X155663631Y-90900682D01*
X155657967Y-90878073D01*
X155654548Y-90855018D01*
X155653404Y-90831739D01*
X155653404Y-90356739D01*
X155654548Y-90333460D01*
X155657967Y-90310405D01*
X155663631Y-90287796D01*
X155671483Y-90265852D01*
X155681448Y-90244782D01*
X155693430Y-90224791D01*
X155707314Y-90206071D01*
X155722966Y-90188801D01*
X155740236Y-90173149D01*
X155758956Y-90159265D01*
X155778947Y-90147283D01*
X155800017Y-90137318D01*
X155821961Y-90129466D01*
X155844570Y-90123802D01*
X155867625Y-90120383D01*
X155890904Y-90119239D01*
X156465904Y-90119239D01*
X156489183Y-90120383D01*
X156489183Y-90120383D01*
G37*
D11*
X156178404Y-90594239D03*
D10*
G36*
X158239183Y-90120383D02*
X158262238Y-90123802D01*
X158284847Y-90129466D01*
X158306791Y-90137318D01*
X158327861Y-90147283D01*
X158347852Y-90159265D01*
X158366572Y-90173149D01*
X158383842Y-90188801D01*
X158399494Y-90206071D01*
X158413378Y-90224791D01*
X158425360Y-90244782D01*
X158435325Y-90265852D01*
X158443177Y-90287796D01*
X158448841Y-90310405D01*
X158452260Y-90333460D01*
X158453404Y-90356739D01*
X158453404Y-90831739D01*
X158452260Y-90855018D01*
X158448841Y-90878073D01*
X158443177Y-90900682D01*
X158435325Y-90922626D01*
X158425360Y-90943696D01*
X158413378Y-90963687D01*
X158399494Y-90982407D01*
X158383842Y-90999677D01*
X158366572Y-91015329D01*
X158347852Y-91029213D01*
X158327861Y-91041195D01*
X158306791Y-91051160D01*
X158284847Y-91059012D01*
X158262238Y-91064676D01*
X158239183Y-91068095D01*
X158215904Y-91069239D01*
X157640904Y-91069239D01*
X157617625Y-91068095D01*
X157594570Y-91064676D01*
X157571961Y-91059012D01*
X157550017Y-91051160D01*
X157528947Y-91041195D01*
X157508956Y-91029213D01*
X157490236Y-91015329D01*
X157472966Y-90999677D01*
X157457314Y-90982407D01*
X157443430Y-90963687D01*
X157431448Y-90943696D01*
X157421483Y-90922626D01*
X157413631Y-90900682D01*
X157407967Y-90878073D01*
X157404548Y-90855018D01*
X157403404Y-90831739D01*
X157403404Y-90356739D01*
X157404548Y-90333460D01*
X157407967Y-90310405D01*
X157413631Y-90287796D01*
X157421483Y-90265852D01*
X157431448Y-90244782D01*
X157443430Y-90224791D01*
X157457314Y-90206071D01*
X157472966Y-90188801D01*
X157490236Y-90173149D01*
X157508956Y-90159265D01*
X157528947Y-90147283D01*
X157550017Y-90137318D01*
X157571961Y-90129466D01*
X157594570Y-90123802D01*
X157617625Y-90120383D01*
X157640904Y-90119239D01*
X158215904Y-90119239D01*
X158239183Y-90120383D01*
X158239183Y-90120383D01*
G37*
D11*
X157928404Y-90594239D03*
G04 #@! TD*
M02*
