G04 #@! TF.GenerationSoftware,KiCad,Pcbnew,5.0.2-bee76a0~70~ubuntu16.04.1*
G04 #@! TF.CreationDate,2019-03-12T22:28:51+00:00*
G04 #@! TF.ProjectId,project,70726f6a-6563-4742-9e6b-696361645f70,rev?*
G04 #@! TF.SameCoordinates,Original*
G04 #@! TF.FileFunction,Legend,Bot*
G04 #@! TF.FilePolarity,Positive*
%FSLAX46Y46*%
G04 Gerber Fmt 4.6, Leading zero omitted, Abs format (unit mm)*
G04 Created by KiCad (PCBNEW 5.0.2-bee76a0~70~ubuntu16.04.1) date Tue 12 Mar 2019 22:28:51 GMT*
%MOMM*%
%LPD*%
G01*
G04 APERTURE LIST*
%ADD10C,0.150000*%
%ADD11C,0.120000*%
G04 APERTURE END LIST*
D10*
X160950000Y-98864285D02*
X160821428Y-98907142D01*
X160607142Y-98907142D01*
X160521428Y-98864285D01*
X160478571Y-98821428D01*
X160435714Y-98735714D01*
X160435714Y-98650000D01*
X160478571Y-98564285D01*
X160521428Y-98521428D01*
X160607142Y-98478571D01*
X160778571Y-98435714D01*
X160864285Y-98392857D01*
X160907142Y-98350000D01*
X160950000Y-98264285D01*
X160950000Y-98178571D01*
X160907142Y-98092857D01*
X160864285Y-98050000D01*
X160778571Y-98007142D01*
X160564285Y-98007142D01*
X160435714Y-98050000D01*
X160178571Y-98007142D02*
X159664285Y-98007142D01*
X159921428Y-98907142D02*
X159921428Y-98007142D01*
X159364285Y-98907142D02*
X159364285Y-98007142D01*
X159064285Y-98650000D01*
X158764285Y-98007142D01*
X158764285Y-98907142D01*
X158421428Y-98007142D02*
X157864285Y-98007142D01*
X158164285Y-98350000D01*
X158035714Y-98350000D01*
X157950000Y-98392857D01*
X157907142Y-98435714D01*
X157864285Y-98521428D01*
X157864285Y-98735714D01*
X157907142Y-98821428D01*
X157950000Y-98864285D01*
X158035714Y-98907142D01*
X158292857Y-98907142D01*
X158378571Y-98864285D01*
X158421428Y-98821428D01*
X157564285Y-98007142D02*
X157007142Y-98007142D01*
X157307142Y-98350000D01*
X157178571Y-98350000D01*
X157092857Y-98392857D01*
X157050000Y-98435714D01*
X157007142Y-98521428D01*
X157007142Y-98735714D01*
X157050000Y-98821428D01*
X157092857Y-98864285D01*
X157178571Y-98907142D01*
X157435714Y-98907142D01*
X157521428Y-98864285D01*
X157564285Y-98821428D01*
X156664285Y-98092857D02*
X156621428Y-98050000D01*
X156535714Y-98007142D01*
X156321428Y-98007142D01*
X156235714Y-98050000D01*
X156192857Y-98092857D01*
X156150000Y-98178571D01*
X156150000Y-98264285D01*
X156192857Y-98392857D01*
X156707142Y-98907142D01*
X156150000Y-98907142D01*
X155335714Y-98907142D02*
X155764285Y-98907142D01*
X155764285Y-98007142D01*
X154864285Y-98007142D02*
X154778571Y-98007142D01*
X154692857Y-98050000D01*
X154650000Y-98092857D01*
X154607142Y-98178571D01*
X154564285Y-98350000D01*
X154564285Y-98564285D01*
X154607142Y-98735714D01*
X154650000Y-98821428D01*
X154692857Y-98864285D01*
X154778571Y-98907142D01*
X154864285Y-98907142D01*
X154950000Y-98864285D01*
X154992857Y-98821428D01*
X155035714Y-98735714D01*
X155078571Y-98564285D01*
X155078571Y-98350000D01*
X155035714Y-98178571D01*
X154992857Y-98092857D01*
X154950000Y-98050000D01*
X154864285Y-98007142D01*
X154264285Y-98007142D02*
X153707142Y-98007142D01*
X154007142Y-98350000D01*
X153878571Y-98350000D01*
X153792857Y-98392857D01*
X153750000Y-98435714D01*
X153707142Y-98521428D01*
X153707142Y-98735714D01*
X153750000Y-98821428D01*
X153792857Y-98864285D01*
X153878571Y-98907142D01*
X154135714Y-98907142D01*
X154221428Y-98864285D01*
X154264285Y-98821428D01*
X152850000Y-98907142D02*
X153364285Y-98907142D01*
X153107142Y-98907142D02*
X153107142Y-98007142D01*
X153192857Y-98135714D01*
X153278571Y-98221428D01*
X153364285Y-98264285D01*
X153487976Y-113242857D02*
X153373690Y-113280952D01*
X153335595Y-113319047D01*
X153297500Y-113395238D01*
X153297500Y-113509523D01*
X153335595Y-113585714D01*
X153373690Y-113623809D01*
X153449880Y-113661904D01*
X153754642Y-113661904D01*
X153754642Y-112861904D01*
X153487976Y-112861904D01*
X153411785Y-112900000D01*
X153373690Y-112938095D01*
X153335595Y-113014285D01*
X153335595Y-113090476D01*
X153373690Y-113166666D01*
X153411785Y-113204761D01*
X153487976Y-113242857D01*
X153754642Y-113242857D01*
X152802261Y-112861904D02*
X152649880Y-112861904D01*
X152573690Y-112900000D01*
X152497500Y-112976190D01*
X152459404Y-113128571D01*
X152459404Y-113395238D01*
X152497500Y-113547619D01*
X152573690Y-113623809D01*
X152649880Y-113661904D01*
X152802261Y-113661904D01*
X152878452Y-113623809D01*
X152954642Y-113547619D01*
X152992738Y-113395238D01*
X152992738Y-113128571D01*
X152954642Y-112976190D01*
X152878452Y-112900000D01*
X152802261Y-112861904D01*
X151964166Y-112861904D02*
X151811785Y-112861904D01*
X151735595Y-112900000D01*
X151659404Y-112976190D01*
X151621309Y-113128571D01*
X151621309Y-113395238D01*
X151659404Y-113547619D01*
X151735595Y-113623809D01*
X151811785Y-113661904D01*
X151964166Y-113661904D01*
X152040357Y-113623809D01*
X152116547Y-113547619D01*
X152154642Y-113395238D01*
X152154642Y-113128571D01*
X152116547Y-112976190D01*
X152040357Y-112900000D01*
X151964166Y-112861904D01*
X151392738Y-112861904D02*
X150935595Y-112861904D01*
X151164166Y-113661904D02*
X151164166Y-112861904D01*
X150516547Y-112861904D02*
X150440357Y-112861904D01*
X150364166Y-112900000D01*
X150326071Y-112938095D01*
X150287976Y-113014285D01*
X150249880Y-113166666D01*
X150249880Y-113357142D01*
X150287976Y-113509523D01*
X150326071Y-113585714D01*
X150364166Y-113623809D01*
X150440357Y-113661904D01*
X150516547Y-113661904D01*
X150592738Y-113623809D01*
X150630833Y-113585714D01*
X150668928Y-113509523D01*
X150707023Y-113357142D01*
X150707023Y-113166666D01*
X150668928Y-113014285D01*
X150630833Y-112938095D01*
X150592738Y-112900000D01*
X150516547Y-112861904D01*
X153030833Y-111061904D02*
X153030833Y-110261904D01*
X152726071Y-110261904D01*
X152649880Y-110300000D01*
X152611785Y-110338095D01*
X152573690Y-110414285D01*
X152573690Y-110528571D01*
X152611785Y-110604761D01*
X152649880Y-110642857D01*
X152726071Y-110680952D01*
X153030833Y-110680952D01*
X151773690Y-110985714D02*
X151811785Y-111023809D01*
X151926071Y-111061904D01*
X152002261Y-111061904D01*
X152116547Y-111023809D01*
X152192738Y-110947619D01*
X152230833Y-110871428D01*
X152268928Y-110719047D01*
X152268928Y-110604761D01*
X152230833Y-110452380D01*
X152192738Y-110376190D01*
X152116547Y-110300000D01*
X152002261Y-110261904D01*
X151926071Y-110261904D01*
X151811785Y-110300000D01*
X151773690Y-110338095D01*
X151011785Y-111061904D02*
X151468928Y-111061904D01*
X151240357Y-111061904D02*
X151240357Y-110261904D01*
X151316547Y-110376190D01*
X151392738Y-110452380D01*
X151468928Y-110490476D01*
X150326071Y-110528571D02*
X150326071Y-111061904D01*
X150516547Y-110223809D02*
X150707023Y-110795238D01*
X150211785Y-110795238D01*
X153030833Y-108561904D02*
X153030833Y-107761904D01*
X152726071Y-107761904D01*
X152649880Y-107800000D01*
X152611785Y-107838095D01*
X152573690Y-107914285D01*
X152573690Y-108028571D01*
X152611785Y-108104761D01*
X152649880Y-108142857D01*
X152726071Y-108180952D01*
X153030833Y-108180952D01*
X151773690Y-108485714D02*
X151811785Y-108523809D01*
X151926071Y-108561904D01*
X152002261Y-108561904D01*
X152116547Y-108523809D01*
X152192738Y-108447619D01*
X152230833Y-108371428D01*
X152268928Y-108219047D01*
X152268928Y-108104761D01*
X152230833Y-107952380D01*
X152192738Y-107876190D01*
X152116547Y-107800000D01*
X152002261Y-107761904D01*
X151926071Y-107761904D01*
X151811785Y-107800000D01*
X151773690Y-107838095D01*
X151011785Y-108561904D02*
X151468928Y-108561904D01*
X151240357Y-108561904D02*
X151240357Y-107761904D01*
X151316547Y-107876190D01*
X151392738Y-107952380D01*
X151468928Y-107990476D01*
X150287976Y-107761904D02*
X150668928Y-107761904D01*
X150707023Y-108142857D01*
X150668928Y-108104761D01*
X150592738Y-108066666D01*
X150402261Y-108066666D01*
X150326071Y-108104761D01*
X150287976Y-108142857D01*
X150249880Y-108219047D01*
X150249880Y-108409523D01*
X150287976Y-108485714D01*
X150326071Y-108523809D01*
X150402261Y-108561904D01*
X150592738Y-108561904D01*
X150668928Y-108523809D01*
X150707023Y-108485714D01*
X151621309Y-105861904D02*
X151887976Y-105480952D01*
X152078452Y-105861904D02*
X152078452Y-105061904D01*
X151773690Y-105061904D01*
X151697500Y-105100000D01*
X151659404Y-105138095D01*
X151621309Y-105214285D01*
X151621309Y-105328571D01*
X151659404Y-105404761D01*
X151697500Y-105442857D01*
X151773690Y-105480952D01*
X152078452Y-105480952D01*
X151316547Y-105823809D02*
X151202261Y-105861904D01*
X151011785Y-105861904D01*
X150935595Y-105823809D01*
X150897500Y-105785714D01*
X150859404Y-105709523D01*
X150859404Y-105633333D01*
X150897500Y-105557142D01*
X150935595Y-105519047D01*
X151011785Y-105480952D01*
X151164166Y-105442857D01*
X151240357Y-105404761D01*
X151278452Y-105366666D01*
X151316547Y-105290476D01*
X151316547Y-105214285D01*
X151278452Y-105138095D01*
X151240357Y-105100000D01*
X151164166Y-105061904D01*
X150973690Y-105061904D01*
X150859404Y-105100000D01*
X150630833Y-105061904D02*
X150173690Y-105061904D01*
X150402261Y-105861904D02*
X150402261Y-105061904D01*
X152192738Y-102561904D02*
X151697500Y-102561904D01*
X151964166Y-102866666D01*
X151849880Y-102866666D01*
X151773690Y-102904761D01*
X151735595Y-102942857D01*
X151697500Y-103019047D01*
X151697500Y-103209523D01*
X151735595Y-103285714D01*
X151773690Y-103323809D01*
X151849880Y-103361904D01*
X152078452Y-103361904D01*
X152154642Y-103323809D01*
X152192738Y-103285714D01*
X151468928Y-102561904D02*
X151202261Y-103361904D01*
X150935595Y-102561904D01*
X150745119Y-102561904D02*
X150249880Y-102561904D01*
X150516547Y-102866666D01*
X150402261Y-102866666D01*
X150326071Y-102904761D01*
X150287976Y-102942857D01*
X150249880Y-103019047D01*
X150249880Y-103209523D01*
X150287976Y-103285714D01*
X150326071Y-103323809D01*
X150402261Y-103361904D01*
X150630833Y-103361904D01*
X150707023Y-103323809D01*
X150745119Y-103285714D01*
X152154642Y-100861904D02*
X152154642Y-100061904D01*
X151849880Y-100061904D01*
X151773690Y-100100000D01*
X151735595Y-100138095D01*
X151697500Y-100214285D01*
X151697500Y-100328571D01*
X151735595Y-100404761D01*
X151773690Y-100442857D01*
X151849880Y-100480952D01*
X152154642Y-100480952D01*
X151392738Y-100633333D02*
X151011785Y-100633333D01*
X151468928Y-100861904D02*
X151202261Y-100061904D01*
X150935595Y-100861904D01*
X150516547Y-100061904D02*
X150440357Y-100061904D01*
X150364166Y-100100000D01*
X150326071Y-100138095D01*
X150287976Y-100214285D01*
X150249880Y-100366666D01*
X150249880Y-100557142D01*
X150287976Y-100709523D01*
X150326071Y-100785714D01*
X150364166Y-100823809D01*
X150440357Y-100861904D01*
X150516547Y-100861904D01*
X150592738Y-100823809D01*
X150630833Y-100785714D01*
X150668928Y-100709523D01*
X150707023Y-100557142D01*
X150707023Y-100366666D01*
X150668928Y-100214285D01*
X150630833Y-100138095D01*
X150592738Y-100100000D01*
X150516547Y-100061904D01*
X152154642Y-98361904D02*
X152154642Y-97561904D01*
X151849880Y-97561904D01*
X151773690Y-97600000D01*
X151735595Y-97638095D01*
X151697500Y-97714285D01*
X151697500Y-97828571D01*
X151735595Y-97904761D01*
X151773690Y-97942857D01*
X151849880Y-97980952D01*
X152154642Y-97980952D01*
X151392738Y-98133333D02*
X151011785Y-98133333D01*
X151468928Y-98361904D02*
X151202261Y-97561904D01*
X150935595Y-98361904D01*
X150249880Y-98361904D02*
X150707023Y-98361904D01*
X150478452Y-98361904D02*
X150478452Y-97561904D01*
X150554642Y-97676190D01*
X150630833Y-97752380D01*
X150707023Y-97790476D01*
X152154642Y-95861904D02*
X152154642Y-95061904D01*
X151849880Y-95061904D01*
X151773690Y-95100000D01*
X151735595Y-95138095D01*
X151697500Y-95214285D01*
X151697500Y-95328571D01*
X151735595Y-95404761D01*
X151773690Y-95442857D01*
X151849880Y-95480952D01*
X152154642Y-95480952D01*
X151392738Y-95633333D02*
X151011785Y-95633333D01*
X151468928Y-95861904D02*
X151202261Y-95061904D01*
X150935595Y-95861904D01*
X150707023Y-95138095D02*
X150668928Y-95100000D01*
X150592738Y-95061904D01*
X150402261Y-95061904D01*
X150326071Y-95100000D01*
X150287976Y-95138095D01*
X150249880Y-95214285D01*
X150249880Y-95290476D01*
X150287976Y-95404761D01*
X150745119Y-95861904D01*
X150249880Y-95861904D01*
X152154642Y-93361904D02*
X152154642Y-92561904D01*
X151849880Y-92561904D01*
X151773690Y-92600000D01*
X151735595Y-92638095D01*
X151697500Y-92714285D01*
X151697500Y-92828571D01*
X151735595Y-92904761D01*
X151773690Y-92942857D01*
X151849880Y-92980952D01*
X152154642Y-92980952D01*
X151392738Y-93133333D02*
X151011785Y-93133333D01*
X151468928Y-93361904D02*
X151202261Y-92561904D01*
X150935595Y-93361904D01*
X150745119Y-92561904D02*
X150249880Y-92561904D01*
X150516547Y-92866666D01*
X150402261Y-92866666D01*
X150326071Y-92904761D01*
X150287976Y-92942857D01*
X150249880Y-93019047D01*
X150249880Y-93209523D01*
X150287976Y-93285714D01*
X150326071Y-93323809D01*
X150402261Y-93361904D01*
X150630833Y-93361904D01*
X150707023Y-93323809D01*
X150745119Y-93285714D01*
X152154642Y-90861904D02*
X152154642Y-90061904D01*
X151849880Y-90061904D01*
X151773690Y-90100000D01*
X151735595Y-90138095D01*
X151697500Y-90214285D01*
X151697500Y-90328571D01*
X151735595Y-90404761D01*
X151773690Y-90442857D01*
X151849880Y-90480952D01*
X152154642Y-90480952D01*
X151392738Y-90633333D02*
X151011785Y-90633333D01*
X151468928Y-90861904D02*
X151202261Y-90061904D01*
X150935595Y-90861904D01*
X150326071Y-90328571D02*
X150326071Y-90861904D01*
X150516547Y-90023809D02*
X150707023Y-90595238D01*
X150211785Y-90595238D01*
X163920119Y-113578809D02*
X163805833Y-113616904D01*
X163615357Y-113616904D01*
X163539166Y-113578809D01*
X163501071Y-113540714D01*
X163462976Y-113464523D01*
X163462976Y-113388333D01*
X163501071Y-113312142D01*
X163539166Y-113274047D01*
X163615357Y-113235952D01*
X163767738Y-113197857D01*
X163843928Y-113159761D01*
X163882023Y-113121666D01*
X163920119Y-113045476D01*
X163920119Y-112969285D01*
X163882023Y-112893095D01*
X163843928Y-112855000D01*
X163767738Y-112816904D01*
X163577261Y-112816904D01*
X163462976Y-112855000D01*
X163196309Y-112816904D02*
X163005833Y-113616904D01*
X162853452Y-113045476D01*
X162701071Y-113616904D01*
X162510595Y-112816904D01*
X161748690Y-113540714D02*
X161786785Y-113578809D01*
X161901071Y-113616904D01*
X161977261Y-113616904D01*
X162091547Y-113578809D01*
X162167738Y-113502619D01*
X162205833Y-113426428D01*
X162243928Y-113274047D01*
X162243928Y-113159761D01*
X162205833Y-113007380D01*
X162167738Y-112931190D01*
X162091547Y-112855000D01*
X161977261Y-112816904D01*
X161901071Y-112816904D01*
X161786785Y-112855000D01*
X161748690Y-112893095D01*
X161024880Y-113616904D02*
X161405833Y-113616904D01*
X161405833Y-112816904D01*
X160758214Y-113616904D02*
X160758214Y-112816904D01*
X160301071Y-113616904D02*
X160643928Y-113159761D01*
X160301071Y-112816904D02*
X160758214Y-113274047D01*
X163920119Y-111038809D02*
X163805833Y-111076904D01*
X163615357Y-111076904D01*
X163539166Y-111038809D01*
X163501071Y-111000714D01*
X163462976Y-110924523D01*
X163462976Y-110848333D01*
X163501071Y-110772142D01*
X163539166Y-110734047D01*
X163615357Y-110695952D01*
X163767738Y-110657857D01*
X163843928Y-110619761D01*
X163882023Y-110581666D01*
X163920119Y-110505476D01*
X163920119Y-110429285D01*
X163882023Y-110353095D01*
X163843928Y-110315000D01*
X163767738Y-110276904D01*
X163577261Y-110276904D01*
X163462976Y-110315000D01*
X163196309Y-110276904D02*
X163005833Y-111076904D01*
X162853452Y-110505476D01*
X162701071Y-111076904D01*
X162510595Y-110276904D01*
X162205833Y-111076904D02*
X162205833Y-110276904D01*
X162015357Y-110276904D01*
X161901071Y-110315000D01*
X161824880Y-110391190D01*
X161786785Y-110467380D01*
X161748690Y-110619761D01*
X161748690Y-110734047D01*
X161786785Y-110886428D01*
X161824880Y-110962619D01*
X161901071Y-111038809D01*
X162015357Y-111076904D01*
X162205833Y-111076904D01*
X161405833Y-111076904D02*
X161405833Y-110276904D01*
X160872500Y-110276904D02*
X160720119Y-110276904D01*
X160643928Y-110315000D01*
X160567738Y-110391190D01*
X160529642Y-110543571D01*
X160529642Y-110810238D01*
X160567738Y-110962619D01*
X160643928Y-111038809D01*
X160720119Y-111076904D01*
X160872500Y-111076904D01*
X160948690Y-111038809D01*
X161024880Y-110962619D01*
X161062976Y-110810238D01*
X161062976Y-110543571D01*
X161024880Y-110391190D01*
X160948690Y-110315000D01*
X160872500Y-110276904D01*
X163882023Y-108536904D02*
X163882023Y-107736904D01*
X163577261Y-107736904D01*
X163501071Y-107775000D01*
X163462976Y-107813095D01*
X163424880Y-107889285D01*
X163424880Y-108003571D01*
X163462976Y-108079761D01*
X163501071Y-108117857D01*
X163577261Y-108155952D01*
X163882023Y-108155952D01*
X163120119Y-108308333D02*
X162739166Y-108308333D01*
X163196309Y-108536904D02*
X162929642Y-107736904D01*
X162662976Y-108536904D01*
X161977261Y-108536904D02*
X162434404Y-108536904D01*
X162205833Y-108536904D02*
X162205833Y-107736904D01*
X162282023Y-107851190D01*
X162358214Y-107927380D01*
X162434404Y-107965476D01*
X161482023Y-107736904D02*
X161405833Y-107736904D01*
X161329642Y-107775000D01*
X161291547Y-107813095D01*
X161253452Y-107889285D01*
X161215357Y-108041666D01*
X161215357Y-108232142D01*
X161253452Y-108384523D01*
X161291547Y-108460714D01*
X161329642Y-108498809D01*
X161405833Y-108536904D01*
X161482023Y-108536904D01*
X161558214Y-108498809D01*
X161596309Y-108460714D01*
X161634404Y-108384523D01*
X161672500Y-108232142D01*
X161672500Y-108041666D01*
X161634404Y-107889285D01*
X161596309Y-107813095D01*
X161558214Y-107775000D01*
X161482023Y-107736904D01*
X163833333Y-105996904D02*
X163833333Y-105196904D01*
X163528571Y-105196904D01*
X163452380Y-105235000D01*
X163414285Y-105273095D01*
X163376190Y-105349285D01*
X163376190Y-105463571D01*
X163414285Y-105539761D01*
X163452380Y-105577857D01*
X163528571Y-105615952D01*
X163833333Y-105615952D01*
X163071428Y-105768333D02*
X162690476Y-105768333D01*
X163147619Y-105996904D02*
X162880952Y-105196904D01*
X162614285Y-105996904D01*
X162309523Y-105996904D02*
X162157142Y-105996904D01*
X162080952Y-105958809D01*
X162042857Y-105920714D01*
X161966666Y-105806428D01*
X161928571Y-105654047D01*
X161928571Y-105349285D01*
X161966666Y-105273095D01*
X162004761Y-105235000D01*
X162080952Y-105196904D01*
X162233333Y-105196904D01*
X162309523Y-105235000D01*
X162347619Y-105273095D01*
X162385714Y-105349285D01*
X162385714Y-105539761D01*
X162347619Y-105615952D01*
X162309523Y-105654047D01*
X162233333Y-105692142D01*
X162080952Y-105692142D01*
X162004761Y-105654047D01*
X161966666Y-105615952D01*
X161928571Y-105539761D01*
X163890476Y-102656904D02*
X163395238Y-102656904D01*
X163661904Y-102961666D01*
X163547619Y-102961666D01*
X163471428Y-102999761D01*
X163433333Y-103037857D01*
X163395238Y-103114047D01*
X163395238Y-103304523D01*
X163433333Y-103380714D01*
X163471428Y-103418809D01*
X163547619Y-103456904D01*
X163776190Y-103456904D01*
X163852380Y-103418809D01*
X163890476Y-103380714D01*
X163166666Y-102656904D02*
X162900000Y-103456904D01*
X162633333Y-102656904D01*
X162442857Y-102656904D02*
X161947619Y-102656904D01*
X162214285Y-102961666D01*
X162100000Y-102961666D01*
X162023809Y-102999761D01*
X161985714Y-103037857D01*
X161947619Y-103114047D01*
X161947619Y-103304523D01*
X161985714Y-103380714D01*
X162023809Y-103418809D01*
X162100000Y-103456904D01*
X162328571Y-103456904D01*
X162404761Y-103418809D01*
X162442857Y-103380714D01*
X163509523Y-100155000D02*
X163585714Y-100116904D01*
X163700000Y-100116904D01*
X163814285Y-100155000D01*
X163890476Y-100231190D01*
X163928571Y-100307380D01*
X163966666Y-100459761D01*
X163966666Y-100574047D01*
X163928571Y-100726428D01*
X163890476Y-100802619D01*
X163814285Y-100878809D01*
X163700000Y-100916904D01*
X163623809Y-100916904D01*
X163509523Y-100878809D01*
X163471428Y-100840714D01*
X163471428Y-100574047D01*
X163623809Y-100574047D01*
X163128571Y-100916904D02*
X163128571Y-100116904D01*
X162671428Y-100916904D01*
X162671428Y-100116904D01*
X162290476Y-100916904D02*
X162290476Y-100116904D01*
X162100000Y-100116904D01*
X161985714Y-100155000D01*
X161909523Y-100231190D01*
X161871428Y-100307380D01*
X161833333Y-100459761D01*
X161833333Y-100574047D01*
X161871428Y-100726428D01*
X161909523Y-100802619D01*
X161985714Y-100878809D01*
X162100000Y-100916904D01*
X162290476Y-100916904D01*
X163890476Y-98376904D02*
X163890476Y-97576904D01*
X163585714Y-97576904D01*
X163509523Y-97615000D01*
X163471428Y-97653095D01*
X163433333Y-97729285D01*
X163433333Y-97843571D01*
X163471428Y-97919761D01*
X163509523Y-97957857D01*
X163585714Y-97995952D01*
X163890476Y-97995952D01*
X162823809Y-97957857D02*
X162709523Y-97995952D01*
X162671428Y-98034047D01*
X162633333Y-98110238D01*
X162633333Y-98224523D01*
X162671428Y-98300714D01*
X162709523Y-98338809D01*
X162785714Y-98376904D01*
X163090476Y-98376904D01*
X163090476Y-97576904D01*
X162823809Y-97576904D01*
X162747619Y-97615000D01*
X162709523Y-97653095D01*
X162671428Y-97729285D01*
X162671428Y-97805476D01*
X162709523Y-97881666D01*
X162747619Y-97919761D01*
X162823809Y-97957857D01*
X163090476Y-97957857D01*
X161871428Y-98376904D02*
X162328571Y-98376904D01*
X162100000Y-98376904D02*
X162100000Y-97576904D01*
X162176190Y-97691190D01*
X162252380Y-97767380D01*
X162328571Y-97805476D01*
X163833333Y-95836904D02*
X163833333Y-95036904D01*
X163528571Y-95036904D01*
X163452380Y-95075000D01*
X163414285Y-95113095D01*
X163376190Y-95189285D01*
X163376190Y-95303571D01*
X163414285Y-95379761D01*
X163452380Y-95417857D01*
X163528571Y-95455952D01*
X163833333Y-95455952D01*
X163071428Y-95608333D02*
X162690476Y-95608333D01*
X163147619Y-95836904D02*
X162880952Y-95036904D01*
X162614285Y-95836904D01*
X162423809Y-95036904D02*
X161890476Y-95036904D01*
X162233333Y-95836904D01*
X163833333Y-93296904D02*
X163833333Y-92496904D01*
X163528571Y-92496904D01*
X163452380Y-92535000D01*
X163414285Y-92573095D01*
X163376190Y-92649285D01*
X163376190Y-92763571D01*
X163414285Y-92839761D01*
X163452380Y-92877857D01*
X163528571Y-92915952D01*
X163833333Y-92915952D01*
X163071428Y-93068333D02*
X162690476Y-93068333D01*
X163147619Y-93296904D02*
X162880952Y-92496904D01*
X162614285Y-93296904D01*
X162004761Y-92496904D02*
X162157142Y-92496904D01*
X162233333Y-92535000D01*
X162271428Y-92573095D01*
X162347619Y-92687380D01*
X162385714Y-92839761D01*
X162385714Y-93144523D01*
X162347619Y-93220714D01*
X162309523Y-93258809D01*
X162233333Y-93296904D01*
X162080952Y-93296904D01*
X162004761Y-93258809D01*
X161966666Y-93220714D01*
X161928571Y-93144523D01*
X161928571Y-92954047D01*
X161966666Y-92877857D01*
X162004761Y-92839761D01*
X162080952Y-92801666D01*
X162233333Y-92801666D01*
X162309523Y-92839761D01*
X162347619Y-92877857D01*
X162385714Y-92954047D01*
X163833333Y-90756904D02*
X163833333Y-89956904D01*
X163528571Y-89956904D01*
X163452380Y-89995000D01*
X163414285Y-90033095D01*
X163376190Y-90109285D01*
X163376190Y-90223571D01*
X163414285Y-90299761D01*
X163452380Y-90337857D01*
X163528571Y-90375952D01*
X163833333Y-90375952D01*
X163071428Y-90528333D02*
X162690476Y-90528333D01*
X163147619Y-90756904D02*
X162880952Y-89956904D01*
X162614285Y-90756904D01*
X161966666Y-89956904D02*
X162347619Y-89956904D01*
X162385714Y-90337857D01*
X162347619Y-90299761D01*
X162271428Y-90261666D01*
X162080952Y-90261666D01*
X162004761Y-90299761D01*
X161966666Y-90337857D01*
X161928571Y-90414047D01*
X161928571Y-90604523D01*
X161966666Y-90680714D01*
X162004761Y-90718809D01*
X162080952Y-90756904D01*
X162271428Y-90756904D01*
X162347619Y-90718809D01*
X162385714Y-90680714D01*
X151633333Y-115461904D02*
X151633333Y-114661904D01*
X151328571Y-114661904D01*
X151252380Y-114700000D01*
X151214285Y-114738095D01*
X151176190Y-114814285D01*
X151176190Y-114928571D01*
X151214285Y-115004761D01*
X151252380Y-115042857D01*
X151328571Y-115080952D01*
X151633333Y-115080952D01*
X150871428Y-115233333D02*
X150490476Y-115233333D01*
X150947619Y-115461904D02*
X150680952Y-114661904D01*
X150414285Y-115461904D01*
X150185714Y-114738095D02*
X150147619Y-114700000D01*
X150071428Y-114661904D01*
X149880952Y-114661904D01*
X149804761Y-114700000D01*
X149766666Y-114738095D01*
X149728571Y-114814285D01*
X149728571Y-114890476D01*
X149766666Y-115004761D01*
X150223809Y-115461904D01*
X149728571Y-115461904D01*
X153616499Y-115456143D02*
X153883165Y-115075191D01*
X154073642Y-115456143D02*
X154073642Y-114656143D01*
X153768880Y-114656143D01*
X153692689Y-114694239D01*
X153654594Y-114732334D01*
X153616499Y-114808524D01*
X153616499Y-114922810D01*
X153654594Y-114999000D01*
X153692689Y-115037096D01*
X153768880Y-115075191D01*
X154073642Y-115075191D01*
X153311737Y-115418048D02*
X153197451Y-115456143D01*
X153006975Y-115456143D01*
X152930784Y-115418048D01*
X152892689Y-115379953D01*
X152854594Y-115303762D01*
X152854594Y-115227572D01*
X152892689Y-115151381D01*
X152930784Y-115113286D01*
X153006975Y-115075191D01*
X153159356Y-115037096D01*
X153235546Y-114999000D01*
X153273642Y-114960905D01*
X153311737Y-114884715D01*
X153311737Y-114808524D01*
X153273642Y-114732334D01*
X153235546Y-114694239D01*
X153159356Y-114656143D01*
X152968880Y-114656143D01*
X152854594Y-114694239D01*
X152626023Y-114656143D02*
X152168880Y-114656143D01*
X152397451Y-115456143D02*
X152397451Y-114656143D01*
X156709356Y-115456143D02*
X156709356Y-114656143D01*
X156518880Y-114656143D01*
X156404594Y-114694239D01*
X156328404Y-114770429D01*
X156290308Y-114846619D01*
X156252213Y-114999000D01*
X156252213Y-115113286D01*
X156290308Y-115265667D01*
X156328404Y-115341858D01*
X156404594Y-115418048D01*
X156518880Y-115456143D01*
X156709356Y-115456143D01*
X155909356Y-115456143D02*
X155909356Y-114656143D01*
X155376023Y-114656143D02*
X155299832Y-114656143D01*
X155223642Y-114694239D01*
X155185546Y-114732334D01*
X155147451Y-114808524D01*
X155109356Y-114960905D01*
X155109356Y-115151381D01*
X155147451Y-115303762D01*
X155185546Y-115379953D01*
X155223642Y-115418048D01*
X155299832Y-115456143D01*
X155376023Y-115456143D01*
X155452213Y-115418048D01*
X155490308Y-115379953D01*
X155528404Y-115303762D01*
X155566499Y-115151381D01*
X155566499Y-114960905D01*
X155528404Y-114808524D01*
X155490308Y-114732334D01*
X155452213Y-114694239D01*
X155376023Y-114656143D01*
X159037927Y-114694239D02*
X159114118Y-114656143D01*
X159228404Y-114656143D01*
X159342689Y-114694239D01*
X159418880Y-114770429D01*
X159456975Y-114846619D01*
X159495070Y-114999000D01*
X159495070Y-115113286D01*
X159456975Y-115265667D01*
X159418880Y-115341858D01*
X159342689Y-115418048D01*
X159228404Y-115456143D01*
X159152213Y-115456143D01*
X159037927Y-115418048D01*
X158999832Y-115379953D01*
X158999832Y-115113286D01*
X159152213Y-115113286D01*
X158656975Y-115456143D02*
X158656975Y-114656143D01*
X158199832Y-115456143D01*
X158199832Y-114656143D01*
X157818880Y-115456143D02*
X157818880Y-114656143D01*
X157628404Y-114656143D01*
X157514118Y-114694239D01*
X157437927Y-114770429D01*
X157399832Y-114846619D01*
X157361737Y-114999000D01*
X157361737Y-115113286D01*
X157399832Y-115265667D01*
X157437927Y-115341858D01*
X157514118Y-115418048D01*
X157628404Y-115456143D01*
X157818880Y-115456143D01*
X161404594Y-115379953D02*
X161442689Y-115418048D01*
X161556975Y-115456143D01*
X161633165Y-115456143D01*
X161747451Y-115418048D01*
X161823642Y-115341858D01*
X161861737Y-115265667D01*
X161899832Y-115113286D01*
X161899832Y-114999000D01*
X161861737Y-114846619D01*
X161823642Y-114770429D01*
X161747451Y-114694239D01*
X161633165Y-114656143D01*
X161556975Y-114656143D01*
X161442689Y-114694239D01*
X161404594Y-114732334D01*
X160680784Y-115456143D02*
X161061737Y-115456143D01*
X161061737Y-114656143D01*
X160414118Y-115456143D02*
X160414118Y-114656143D01*
X159956975Y-115456143D02*
X160299832Y-114999000D01*
X159956975Y-114656143D02*
X160414118Y-115113286D01*
X164418880Y-114656143D02*
X163923642Y-114656143D01*
X164190308Y-114960905D01*
X164076023Y-114960905D01*
X163999832Y-114999000D01*
X163961737Y-115037096D01*
X163923642Y-115113286D01*
X163923642Y-115303762D01*
X163961737Y-115379953D01*
X163999832Y-115418048D01*
X164076023Y-115456143D01*
X164304594Y-115456143D01*
X164380784Y-115418048D01*
X164418880Y-115379953D01*
X163695070Y-114656143D02*
X163428404Y-115456143D01*
X163161737Y-114656143D01*
X162971261Y-114656143D02*
X162476023Y-114656143D01*
X162742689Y-114960905D01*
X162628404Y-114960905D01*
X162552213Y-114999000D01*
X162514118Y-115037096D01*
X162476023Y-115113286D01*
X162476023Y-115303762D01*
X162514118Y-115379953D01*
X162552213Y-115418048D01*
X162628404Y-115456143D01*
X162856975Y-115456143D01*
X162933165Y-115418048D01*
X162971261Y-115379953D01*
D11*
G04 #@! TO.C,J1*
X149408404Y-118624239D02*
X149408404Y-115964239D01*
X162168404Y-118624239D02*
X149408404Y-118624239D01*
X162168404Y-115964239D02*
X149408404Y-115964239D01*
X162168404Y-118624239D02*
X162168404Y-115964239D01*
X163438404Y-118624239D02*
X164768404Y-118624239D01*
X164768404Y-118624239D02*
X164768404Y-117294239D01*
D10*
G04 #@! TO.C,U1*
X154703404Y-100824239D02*
X159153404Y-100824239D01*
X153178404Y-107724239D02*
X159153404Y-107724239D01*
D11*
G04 #@! TO.C,D1*
X157928404Y-91554239D02*
X155068404Y-91554239D01*
X155068404Y-91554239D02*
X155068404Y-89634239D01*
X155068404Y-89634239D02*
X157928404Y-89634239D01*
G04 #@! TO.C,U1*
D10*
X156761904Y-105952380D02*
X156761904Y-106761904D01*
X156714285Y-106857142D01*
X156666666Y-106904761D01*
X156571428Y-106952380D01*
X156380952Y-106952380D01*
X156285714Y-106904761D01*
X156238095Y-106857142D01*
X156190476Y-106761904D01*
X156190476Y-105952380D01*
X155190476Y-106952380D02*
X155761904Y-106952380D01*
X155476190Y-106952380D02*
X155476190Y-105952380D01*
X155571428Y-106095238D01*
X155666666Y-106190476D01*
X155761904Y-106238095D01*
G04 #@! TD*
M02*
