M48
;DRILL file {KiCad 5.0.2-bee76a0~70~ubuntu16.04.1} date Tue 12 Mar 2019 22:28:56 GMT
;FORMAT={-:-/ absolute / inch / decimal}
FMAT,2
INCH,TZ
T1C0.0157
T2C0.0394
%
G90
G05
T1
X6.0602Y-4.2714
X6.135Y-4.1336
X6.1389Y-4.3423
X6.1783Y-3.925
X6.2177Y-4.3423
X6.2216Y-4.1336
X6.2964Y-3.5667
T2
X5.8283Y-3.5679
X5.8283Y-3.6679
X5.8283Y-3.7679
X5.8283Y-3.8679
X5.8283Y-3.9679
X5.8283Y-4.0679
X5.8283Y-4.1679
X5.8283Y-4.2679
X5.8283Y-4.3679
X5.8283Y-4.4679
X5.9346Y-4.6179
X6.0346Y-4.6179
X6.1346Y-4.6179
X6.2346Y-4.6179
X6.3346Y-4.6179
X6.4346Y-4.6179
X6.5283Y-3.5679
X6.5283Y-3.6679
X6.5283Y-3.7679
X6.5283Y-3.8679
X6.5283Y-3.9679
X6.5283Y-4.0679
X6.5283Y-4.1679
X6.5283Y-4.2679
X6.5283Y-4.3679
X6.5283Y-4.4679
T0
M30
