G04 #@! TF.GenerationSoftware,KiCad,Pcbnew,5.0.2-bee76a0~70~ubuntu16.04.1*
G04 #@! TF.CreationDate,2019-03-12T22:28:51+00:00*
G04 #@! TF.ProjectId,project,70726f6a-6563-4742-9e6b-696361645f70,rev?*
G04 #@! TF.SameCoordinates,Original*
G04 #@! TF.FileFunction,Legend,Top*
G04 #@! TF.FilePolarity,Positive*
%FSLAX46Y46*%
G04 Gerber Fmt 4.6, Leading zero omitted, Abs format (unit mm)*
G04 Created by KiCad (PCBNEW 5.0.2-bee76a0~70~ubuntu16.04.1) date Tue 12 Mar 2019 22:28:51 GMT*
%MOMM*%
%LPD*%
G01*
G04 APERTURE LIST*
%ADD10C,0.150000*%
%ADD11C,0.120000*%
G04 APERTURE END LIST*
D10*
X153185714Y-112507142D02*
X153271428Y-112507142D01*
X153357142Y-112550000D01*
X153400000Y-112592857D01*
X153442857Y-112678571D01*
X153485714Y-112850000D01*
X153485714Y-113064285D01*
X153442857Y-113235714D01*
X153400000Y-113321428D01*
X153357142Y-113364285D01*
X153271428Y-113407142D01*
X153185714Y-113407142D01*
X153100000Y-113364285D01*
X153057142Y-113321428D01*
X153014285Y-113235714D01*
X152971428Y-113064285D01*
X152971428Y-112850000D01*
X153014285Y-112678571D01*
X153057142Y-112592857D01*
X153100000Y-112550000D01*
X153185714Y-112507142D01*
X153785714Y-112507142D02*
X154342857Y-112507142D01*
X154042857Y-112850000D01*
X154171428Y-112850000D01*
X154257142Y-112892857D01*
X154300000Y-112935714D01*
X154342857Y-113021428D01*
X154342857Y-113235714D01*
X154300000Y-113321428D01*
X154257142Y-113364285D01*
X154171428Y-113407142D01*
X153914285Y-113407142D01*
X153828571Y-113364285D01*
X153785714Y-113321428D01*
X155371428Y-112464285D02*
X154600000Y-113621428D01*
X155628571Y-112592857D02*
X155671428Y-112550000D01*
X155757142Y-112507142D01*
X155971428Y-112507142D01*
X156057142Y-112550000D01*
X156100000Y-112592857D01*
X156142857Y-112678571D01*
X156142857Y-112764285D01*
X156100000Y-112892857D01*
X155585714Y-113407142D01*
X156142857Y-113407142D01*
X156700000Y-112507142D02*
X156785714Y-112507142D01*
X156871428Y-112550000D01*
X156914285Y-112592857D01*
X156957142Y-112678571D01*
X157000000Y-112850000D01*
X157000000Y-113064285D01*
X156957142Y-113235714D01*
X156914285Y-113321428D01*
X156871428Y-113364285D01*
X156785714Y-113407142D01*
X156700000Y-113407142D01*
X156614285Y-113364285D01*
X156571428Y-113321428D01*
X156528571Y-113235714D01*
X156485714Y-113064285D01*
X156485714Y-112850000D01*
X156528571Y-112678571D01*
X156571428Y-112592857D01*
X156614285Y-112550000D01*
X156700000Y-112507142D01*
X157857142Y-113407142D02*
X157342857Y-113407142D01*
X157600000Y-113407142D02*
X157600000Y-112507142D01*
X157514285Y-112635714D01*
X157428571Y-112721428D01*
X157342857Y-112764285D01*
X158285714Y-113407142D02*
X158457142Y-113407142D01*
X158542857Y-113364285D01*
X158585714Y-113321428D01*
X158671428Y-113192857D01*
X158714285Y-113021428D01*
X158714285Y-112678571D01*
X158671428Y-112592857D01*
X158628571Y-112550000D01*
X158542857Y-112507142D01*
X158371428Y-112507142D01*
X158285714Y-112550000D01*
X158242857Y-112592857D01*
X158200000Y-112678571D01*
X158200000Y-112892857D01*
X158242857Y-112978571D01*
X158285714Y-113021428D01*
X158371428Y-113064285D01*
X158542857Y-113064285D01*
X158628571Y-113021428D01*
X158671428Y-112978571D01*
X158714285Y-112892857D01*
X159657142Y-112507142D02*
X159957142Y-113407142D01*
X160257142Y-112507142D01*
X161028571Y-113407142D02*
X160514285Y-113407142D01*
X160771428Y-113407142D02*
X160771428Y-112507142D01*
X160685714Y-112635714D01*
X160600000Y-112721428D01*
X160514285Y-112764285D01*
D11*
G04 #@! TO.C,C1*
X156974671Y-97084239D02*
X156632137Y-97084239D01*
X156974671Y-98104239D02*
X156632137Y-98104239D01*
G04 #@! TO.C,C2*
X157408404Y-102645506D02*
X157408404Y-102302972D01*
X158428404Y-102645506D02*
X158428404Y-102302972D01*
G04 #@! TO.C,C3*
X156438404Y-102640506D02*
X156438404Y-102297972D01*
X155418404Y-102640506D02*
X155418404Y-102297972D01*
G04 #@! TO.C,C4*
X158438404Y-107422972D02*
X158438404Y-107765506D01*
X157418404Y-107422972D02*
X157418404Y-107765506D01*
G04 #@! TO.C,J2*
X149368404Y-89294239D02*
X146708404Y-89294239D01*
X149368404Y-112214239D02*
X149368404Y-89294239D01*
X146708404Y-112214239D02*
X146708404Y-89294239D01*
X149368404Y-112214239D02*
X146708404Y-112214239D01*
X149368404Y-113484239D02*
X149368404Y-114814239D01*
X149368404Y-114814239D02*
X148038404Y-114814239D01*
G04 #@! TO.C,J3*
X167148404Y-114814239D02*
X165818404Y-114814239D01*
X167148404Y-113484239D02*
X167148404Y-114814239D01*
X167148404Y-112214239D02*
X164488404Y-112214239D01*
X164488404Y-112214239D02*
X164488404Y-89294239D01*
X167148404Y-112214239D02*
X167148404Y-89294239D01*
X167148404Y-89294239D02*
X164488404Y-89294239D01*
G04 #@! TO.C,R1*
X156438404Y-107422972D02*
X156438404Y-107765506D01*
X155418404Y-107422972D02*
X155418404Y-107765506D01*
G04 #@! TO.C,R2*
X156882137Y-90084239D02*
X157224671Y-90084239D01*
X156882137Y-91104239D02*
X157224671Y-91104239D01*
D10*
G04 #@! TO.C,REF\002A\002A*
X162244214Y-94740000D02*
G75*
G03X162244214Y-94740000I-1414214J0D01*
G01*
X162120000Y-93610000D02*
X161890000Y-93720000D01*
X162310000Y-93530000D02*
X162120000Y-93610000D01*
X162460000Y-93380000D02*
X162310000Y-93530000D01*
X162500000Y-93190000D02*
X162460000Y-93380000D01*
X162460000Y-92840000D02*
X162500000Y-93190000D01*
X162310000Y-92540000D02*
X162460000Y-92840000D01*
X161930000Y-92390000D02*
X162310000Y-92540000D01*
X161550000Y-92430000D02*
X161930000Y-92390000D01*
X161200000Y-92730000D02*
X161550000Y-92430000D01*
X160970000Y-92920000D02*
X161200000Y-92730000D01*
X160820000Y-93300000D02*
X160970000Y-92920000D01*
X159490000Y-94140000D02*
X159490000Y-94180000D01*
X159410000Y-94140000D02*
X159490000Y-94140000D01*
X159180000Y-94100000D02*
X159410000Y-94140000D01*
X158920000Y-93950000D02*
X159180000Y-94100000D01*
X158730000Y-93530000D02*
X158920000Y-93950000D01*
X158840000Y-92920000D02*
X158730000Y-93530000D01*
X159140000Y-92620000D02*
X158840000Y-92920000D01*
X159560000Y-92460000D02*
X159140000Y-92620000D01*
X160140000Y-92540000D02*
X159560000Y-92460000D01*
X160480000Y-92730000D02*
X160140000Y-92540000D01*
X160820000Y-93340000D02*
X160480000Y-92730000D01*
X159530000Y-95590000D02*
X159600000Y-95590000D01*
X159260000Y-95890000D02*
X159530000Y-95590000D01*
X159070000Y-96010000D02*
X159260000Y-95890000D01*
X158690000Y-96010000D02*
X159070000Y-96010000D01*
X158340000Y-95700000D02*
X158690000Y-96010000D01*
X158270000Y-95470000D02*
X158340000Y-95700000D01*
X158270000Y-95210000D02*
X158270000Y-95470000D01*
X158340000Y-94940000D02*
X158270000Y-95210000D01*
X158500000Y-94640000D02*
X158340000Y-94940000D01*
X158920000Y-94370000D02*
X158500000Y-94640000D01*
X159450000Y-94140000D02*
X158920000Y-94370000D01*
X161160000Y-96430000D02*
X161160000Y-96160000D01*
X161090000Y-96770000D02*
X161160000Y-96430000D01*
X160970000Y-97110000D02*
X161090000Y-96770000D01*
X160750000Y-97460000D02*
X160970000Y-97110000D01*
X160170000Y-97570000D02*
X160750000Y-97460000D01*
X159680000Y-97260000D02*
X160170000Y-97570000D01*
X159410000Y-96730000D02*
X159680000Y-97260000D01*
X159450000Y-96160000D02*
X159410000Y-96730000D01*
X159600000Y-95590000D02*
X159450000Y-96160000D01*
X162310000Y-95090000D02*
X162150000Y-95020000D01*
X162540000Y-95170000D02*
X162310000Y-95090000D01*
X162880000Y-95210000D02*
X162540000Y-95170000D01*
X163180000Y-95130000D02*
X162880000Y-95210000D01*
X163530000Y-95020000D02*
X163180000Y-95130000D01*
X163680000Y-94710000D02*
X163530000Y-95020000D01*
X163680000Y-94410000D02*
X163680000Y-94710000D01*
X163600000Y-93990000D02*
X163680000Y-94410000D01*
X163070000Y-93650000D02*
X163600000Y-93990000D01*
X162570000Y-93680000D02*
X163070000Y-93650000D01*
X161930000Y-93870000D02*
X162570000Y-93680000D01*
X161320000Y-96390000D02*
X161160000Y-96160000D01*
X161550000Y-96770000D02*
X161320000Y-96390000D01*
X161740000Y-96960000D02*
X161550000Y-96770000D01*
X162040000Y-97110000D02*
X161740000Y-96960000D01*
X162380000Y-97110000D02*
X162040000Y-97110000D01*
X162730000Y-96850000D02*
X162380000Y-97110000D01*
X162920000Y-96580000D02*
X162730000Y-96850000D01*
X162920000Y-96120000D02*
X162920000Y-96580000D01*
X162690000Y-95590000D02*
X162920000Y-96120000D01*
X162270000Y-95090000D02*
X162690000Y-95590000D01*
X161740000Y-94830000D02*
X161660000Y-94900000D01*
X161620000Y-95050000D02*
X161740000Y-94830000D01*
X161510000Y-95250000D02*
X161620000Y-95050000D01*
X161280000Y-95440000D02*
X161510000Y-95250000D01*
X161130000Y-95510000D02*
X161280000Y-95440000D01*
X160970000Y-95510000D02*
X161130000Y-95510000D01*
X160820000Y-95510000D02*
X160970000Y-95510000D01*
X160630000Y-95510000D02*
X160820000Y-95510000D01*
X160480000Y-95440000D02*
X160630000Y-95510000D01*
X160140000Y-95170000D02*
X160480000Y-95440000D01*
X160280000Y-94240000D02*
X160020000Y-94180000D01*
X160390000Y-94320000D02*
X160280000Y-94240000D01*
X160370000Y-94420000D02*
X160390000Y-94320000D01*
X160250000Y-94570000D02*
X160370000Y-94420000D01*
X160100000Y-94670000D02*
X160250000Y-94570000D01*
X159950000Y-94590000D02*
X160100000Y-94670000D01*
X159850000Y-94500000D02*
X159950000Y-94590000D01*
X159870000Y-94350000D02*
X159850000Y-94500000D01*
X159990000Y-94130000D02*
X159870000Y-94350000D01*
X161410000Y-94040000D02*
X161230000Y-94000000D01*
X161500000Y-94150000D02*
X161410000Y-94040000D01*
X161530000Y-94270000D02*
X161500000Y-94150000D01*
X161410000Y-94440000D02*
X161530000Y-94270000D01*
X161230000Y-94480000D02*
X161410000Y-94440000D01*
X161070000Y-94420000D02*
X161230000Y-94480000D01*
X160970000Y-94320000D02*
X161070000Y-94420000D01*
X161060000Y-94130000D02*
X160970000Y-94320000D01*
X161210000Y-94010000D02*
X161060000Y-94130000D01*
X162260000Y-101790000D02*
X162210000Y-101790000D01*
X162150000Y-101350000D02*
X162260000Y-101790000D01*
X161930000Y-100400000D02*
X162150000Y-101350000D01*
X161930000Y-100010000D02*
X161930000Y-100400000D01*
X162090000Y-99450000D02*
X161930000Y-100010000D01*
X162090000Y-98940000D02*
X162090000Y-99450000D01*
X162090000Y-98500000D02*
X162090000Y-98940000D01*
X161930000Y-98050000D02*
X162090000Y-98500000D01*
X161650000Y-97600000D02*
X161930000Y-98050000D01*
X161200000Y-96540000D02*
X161650000Y-97600000D01*
X162290000Y-100430000D02*
X162090000Y-100670000D01*
X162410000Y-100300000D02*
X162290000Y-100430000D01*
X162730000Y-100260000D02*
X162410000Y-100300000D01*
X162550000Y-100430000D02*
X162730000Y-100260000D01*
X162380000Y-100620000D02*
X162550000Y-100430000D01*
X162260000Y-100810000D02*
X162380000Y-100620000D01*
X162120000Y-101080000D02*
X162260000Y-100810000D01*
G04 #@! TO.C,C1*
X156636737Y-99381381D02*
X156589118Y-99429000D01*
X156446261Y-99476619D01*
X156351023Y-99476619D01*
X156208165Y-99429000D01*
X156112927Y-99333762D01*
X156065308Y-99238524D01*
X156017689Y-99048048D01*
X156017689Y-98905191D01*
X156065308Y-98714715D01*
X156112927Y-98619477D01*
X156208165Y-98524239D01*
X156351023Y-98476619D01*
X156446261Y-98476619D01*
X156589118Y-98524239D01*
X156636737Y-98571858D01*
X157589118Y-99476619D02*
X157017689Y-99476619D01*
X157303404Y-99476619D02*
X157303404Y-98476619D01*
X157208165Y-98619477D01*
X157112927Y-98714715D01*
X157017689Y-98762334D01*
G04 #@! TO.C,C2*
X159133333Y-102857142D02*
X159085714Y-102904761D01*
X158942857Y-102952380D01*
X158847619Y-102952380D01*
X158704761Y-102904761D01*
X158609523Y-102809523D01*
X158561904Y-102714285D01*
X158514285Y-102523809D01*
X158514285Y-102380952D01*
X158561904Y-102190476D01*
X158609523Y-102095238D01*
X158704761Y-102000000D01*
X158847619Y-101952380D01*
X158942857Y-101952380D01*
X159085714Y-102000000D01*
X159133333Y-102047619D01*
X159514285Y-102047619D02*
X159561904Y-102000000D01*
X159657142Y-101952380D01*
X159895238Y-101952380D01*
X159990476Y-102000000D01*
X160038095Y-102047619D01*
X160085714Y-102142857D01*
X160085714Y-102238095D01*
X160038095Y-102380952D01*
X159466666Y-102952380D01*
X160085714Y-102952380D01*
G04 #@! TO.C,C3*
X154333333Y-102826381D02*
X154285714Y-102874000D01*
X154142857Y-102921619D01*
X154047619Y-102921619D01*
X153904761Y-102874000D01*
X153809523Y-102778762D01*
X153761904Y-102683524D01*
X153714285Y-102493048D01*
X153714285Y-102350191D01*
X153761904Y-102159715D01*
X153809523Y-102064477D01*
X153904761Y-101969239D01*
X154047619Y-101921619D01*
X154142857Y-101921619D01*
X154285714Y-101969239D01*
X154333333Y-102016858D01*
X154666666Y-101921619D02*
X155285714Y-101921619D01*
X154952380Y-102302572D01*
X155095238Y-102302572D01*
X155190476Y-102350191D01*
X155238095Y-102397810D01*
X155285714Y-102493048D01*
X155285714Y-102731143D01*
X155238095Y-102826381D01*
X155190476Y-102874000D01*
X155095238Y-102921619D01*
X154809523Y-102921619D01*
X154714285Y-102874000D01*
X154666666Y-102826381D01*
G04 #@! TO.C,C4*
X159191737Y-107951381D02*
X159144118Y-107999000D01*
X159001261Y-108046619D01*
X158906023Y-108046619D01*
X158763165Y-107999000D01*
X158667927Y-107903762D01*
X158620308Y-107808524D01*
X158572689Y-107618048D01*
X158572689Y-107475191D01*
X158620308Y-107284715D01*
X158667927Y-107189477D01*
X158763165Y-107094239D01*
X158906023Y-107046619D01*
X159001261Y-107046619D01*
X159144118Y-107094239D01*
X159191737Y-107141858D01*
X160048880Y-107379953D02*
X160048880Y-108046619D01*
X159810784Y-106999000D02*
X159572689Y-107713286D01*
X160191737Y-107713286D01*
G04 #@! TO.C,R1*
X154333333Y-108046619D02*
X154000000Y-107570429D01*
X153761904Y-108046619D02*
X153761904Y-107046619D01*
X154142857Y-107046619D01*
X154238095Y-107094239D01*
X154285714Y-107141858D01*
X154333333Y-107237096D01*
X154333333Y-107379953D01*
X154285714Y-107475191D01*
X154238095Y-107522810D01*
X154142857Y-107570429D01*
X153761904Y-107570429D01*
X155285714Y-108046619D02*
X154714285Y-108046619D01*
X155000000Y-108046619D02*
X155000000Y-107046619D01*
X154904761Y-107189477D01*
X154809523Y-107284715D01*
X154714285Y-107332334D01*
G04 #@! TO.C,R2*
X156833333Y-92752380D02*
X156500000Y-92276190D01*
X156261904Y-92752380D02*
X156261904Y-91752380D01*
X156642857Y-91752380D01*
X156738095Y-91800000D01*
X156785714Y-91847619D01*
X156833333Y-91942857D01*
X156833333Y-92085714D01*
X156785714Y-92180952D01*
X156738095Y-92228571D01*
X156642857Y-92276190D01*
X156261904Y-92276190D01*
X157214285Y-91847619D02*
X157261904Y-91800000D01*
X157357142Y-91752380D01*
X157595238Y-91752380D01*
X157690476Y-91800000D01*
X157738095Y-91847619D01*
X157785714Y-91942857D01*
X157785714Y-92038095D01*
X157738095Y-92180952D01*
X157166666Y-92752380D01*
X157785714Y-92752380D01*
G04 #@! TD*
M02*
