G04 #@! TF.GenerationSoftware,KiCad,Pcbnew,5.0.2-bee76a0~70~ubuntu16.04.1*
G04 #@! TF.CreationDate,2019-03-12T22:28:51+00:00*
G04 #@! TF.ProjectId,project,70726f6a-6563-4742-9e6b-696361645f70,rev?*
G04 #@! TF.SameCoordinates,Original*
G04 #@! TF.FileFunction,Copper,L2,Bot*
G04 #@! TF.FilePolarity,Positive*
%FSLAX46Y46*%
G04 Gerber Fmt 4.6, Leading zero omitted, Abs format (unit mm)*
G04 Created by KiCad (PCBNEW 5.0.2-bee76a0~70~ubuntu16.04.1) date Tue 12 Mar 2019 22:28:51 GMT*
%MOMM*%
%LPD*%
G01*
G04 APERTURE LIST*
G04 #@! TA.AperFunction,ComponentPad*
%ADD10R,1.700000X1.700000*%
G04 #@! TD*
G04 #@! TA.AperFunction,ComponentPad*
%ADD11O,1.700000X1.700000*%
G04 #@! TD*
G04 #@! TA.AperFunction,SMDPad,CuDef*
%ADD12R,1.450000X0.450000*%
G04 #@! TD*
G04 #@! TA.AperFunction,Conductor*
%ADD13C,0.100000*%
G04 #@! TD*
G04 #@! TA.AperFunction,SMDPad,CuDef*
%ADD14C,1.150000*%
G04 #@! TD*
G04 #@! TA.AperFunction,ViaPad*
%ADD15C,0.800000*%
G04 #@! TD*
G04 #@! TA.AperFunction,Conductor*
%ADD16C,0.250000*%
G04 #@! TD*
G04 #@! TA.AperFunction,Conductor*
%ADD17C,0.254000*%
G04 #@! TD*
G04 APERTURE END LIST*
D10*
G04 #@! TO.P,J1,1*
G04 #@! TO.N,+3V3*
X163438404Y-117294239D03*
D11*
G04 #@! TO.P,J1,2*
G04 #@! TO.N,SWCLK*
X160898404Y-117294239D03*
G04 #@! TO.P,J1,3*
G04 #@! TO.N,GND*
X158358404Y-117294239D03*
G04 #@! TO.P,J1,4*
G04 #@! TO.N,SWDI0*
X155818404Y-117294239D03*
G04 #@! TO.P,J1,5*
G04 #@! TO.N,NRST*
X153278404Y-117294239D03*
G04 #@! TO.P,J1,6*
G04 #@! TO.N,PA2*
X150738404Y-117294239D03*
G04 #@! TD*
D10*
G04 #@! TO.P,J2,1*
G04 #@! TO.N,BOOT0*
X148038404Y-113484239D03*
D11*
G04 #@! TO.P,J2,2*
G04 #@! TO.N,PC14*
X148038404Y-110944239D03*
G04 #@! TO.P,J2,3*
G04 #@! TO.N,PC15*
X148038404Y-108404239D03*
G04 #@! TO.P,J2,4*
G04 #@! TO.N,NRST*
X148038404Y-105864239D03*
G04 #@! TO.P,J2,5*
G04 #@! TO.N,+3V3*
X148038404Y-103324239D03*
G04 #@! TO.P,J2,6*
G04 #@! TO.N,PA0*
X148038404Y-100784239D03*
G04 #@! TO.P,J2,7*
G04 #@! TO.N,PA1*
X148038404Y-98244239D03*
G04 #@! TO.P,J2,8*
G04 #@! TO.N,PA2*
X148038404Y-95704239D03*
G04 #@! TO.P,J2,9*
G04 #@! TO.N,PA3*
X148038404Y-93164239D03*
G04 #@! TO.P,J2,10*
G04 #@! TO.N,PA4*
X148038404Y-90624239D03*
G04 #@! TD*
G04 #@! TO.P,J3,10*
G04 #@! TO.N,PA5*
X165818404Y-90624239D03*
G04 #@! TO.P,J3,9*
G04 #@! TO.N,PA6*
X165818404Y-93164239D03*
G04 #@! TO.P,J3,8*
G04 #@! TO.N,PA7*
X165818404Y-95704239D03*
G04 #@! TO.P,J3,7*
G04 #@! TO.N,PB1*
X165818404Y-98244239D03*
G04 #@! TO.P,J3,6*
G04 #@! TO.N,GND*
X165818404Y-100784239D03*
G04 #@! TO.P,J3,5*
G04 #@! TO.N,+3V3*
X165818404Y-103324239D03*
G04 #@! TO.P,J3,4*
G04 #@! TO.N,PA9*
X165818404Y-105864239D03*
G04 #@! TO.P,J3,3*
G04 #@! TO.N,PA10*
X165818404Y-108404239D03*
G04 #@! TO.P,J3,2*
G04 #@! TO.N,SWDI0*
X165818404Y-110944239D03*
D10*
G04 #@! TO.P,J3,1*
G04 #@! TO.N,SWCLK*
X165818404Y-113484239D03*
G04 #@! TD*
D12*
G04 #@! TO.P,U1,1*
G04 #@! TO.N,BOOT0*
X153978404Y-107199239D03*
G04 #@! TO.P,U1,2*
G04 #@! TO.N,PC14*
X153978404Y-106549239D03*
G04 #@! TO.P,U1,3*
G04 #@! TO.N,PC15*
X153978404Y-105899239D03*
G04 #@! TO.P,U1,4*
G04 #@! TO.N,NRST*
X153978404Y-105249239D03*
G04 #@! TO.P,U1,5*
G04 #@! TO.N,+3V3*
X153978404Y-104599239D03*
G04 #@! TO.P,U1,6*
G04 #@! TO.N,PA0*
X153978404Y-103949239D03*
G04 #@! TO.P,U1,7*
G04 #@! TO.N,PA1*
X153978404Y-103299239D03*
G04 #@! TO.P,U1,8*
G04 #@! TO.N,PA2*
X153978404Y-102649239D03*
G04 #@! TO.P,U1,9*
G04 #@! TO.N,PA3*
X153978404Y-101999239D03*
G04 #@! TO.P,U1,10*
G04 #@! TO.N,PA4*
X153978404Y-101349239D03*
G04 #@! TO.P,U1,11*
G04 #@! TO.N,PA5*
X159878404Y-101349239D03*
G04 #@! TO.P,U1,12*
G04 #@! TO.N,PA6*
X159878404Y-101999239D03*
G04 #@! TO.P,U1,13*
G04 #@! TO.N,PA7*
X159878404Y-102649239D03*
G04 #@! TO.P,U1,14*
G04 #@! TO.N,PB1*
X159878404Y-103299239D03*
G04 #@! TO.P,U1,15*
G04 #@! TO.N,GND*
X159878404Y-103949239D03*
G04 #@! TO.P,U1,16*
G04 #@! TO.N,+3V3*
X159878404Y-104599239D03*
G04 #@! TO.P,U1,17*
G04 #@! TO.N,PA9*
X159878404Y-105249239D03*
G04 #@! TO.P,U1,18*
G04 #@! TO.N,PA10*
X159878404Y-105899239D03*
G04 #@! TO.P,U1,19*
G04 #@! TO.N,SWDI0*
X159878404Y-106549239D03*
G04 #@! TO.P,U1,20*
G04 #@! TO.N,SWCLK*
X159878404Y-107199239D03*
G04 #@! TD*
D13*
G04 #@! TO.N,GND*
G04 #@! TO.C,D1*
G36*
X156252909Y-89895443D02*
X156277177Y-89899043D01*
X156300976Y-89905004D01*
X156324075Y-89913269D01*
X156346254Y-89923759D01*
X156367297Y-89936371D01*
X156387003Y-89950986D01*
X156405181Y-89967462D01*
X156421657Y-89985640D01*
X156436272Y-90005346D01*
X156448884Y-90026389D01*
X156459374Y-90048568D01*
X156467639Y-90071667D01*
X156473600Y-90095466D01*
X156477200Y-90119734D01*
X156478404Y-90144238D01*
X156478404Y-91044240D01*
X156477200Y-91068744D01*
X156473600Y-91093012D01*
X156467639Y-91116811D01*
X156459374Y-91139910D01*
X156448884Y-91162089D01*
X156436272Y-91183132D01*
X156421657Y-91202838D01*
X156405181Y-91221016D01*
X156387003Y-91237492D01*
X156367297Y-91252107D01*
X156346254Y-91264719D01*
X156324075Y-91275209D01*
X156300976Y-91283474D01*
X156277177Y-91289435D01*
X156252909Y-91293035D01*
X156228405Y-91294239D01*
X155578403Y-91294239D01*
X155553899Y-91293035D01*
X155529631Y-91289435D01*
X155505832Y-91283474D01*
X155482733Y-91275209D01*
X155460554Y-91264719D01*
X155439511Y-91252107D01*
X155419805Y-91237492D01*
X155401627Y-91221016D01*
X155385151Y-91202838D01*
X155370536Y-91183132D01*
X155357924Y-91162089D01*
X155347434Y-91139910D01*
X155339169Y-91116811D01*
X155333208Y-91093012D01*
X155329608Y-91068744D01*
X155328404Y-91044240D01*
X155328404Y-90144238D01*
X155329608Y-90119734D01*
X155333208Y-90095466D01*
X155339169Y-90071667D01*
X155347434Y-90048568D01*
X155357924Y-90026389D01*
X155370536Y-90005346D01*
X155385151Y-89985640D01*
X155401627Y-89967462D01*
X155419805Y-89950986D01*
X155439511Y-89936371D01*
X155460554Y-89923759D01*
X155482733Y-89913269D01*
X155505832Y-89905004D01*
X155529631Y-89899043D01*
X155553899Y-89895443D01*
X155578403Y-89894239D01*
X156228405Y-89894239D01*
X156252909Y-89895443D01*
X156252909Y-89895443D01*
G37*
D14*
G04 #@! TD*
G04 #@! TO.P,D1,1*
G04 #@! TO.N,GND*
X155903404Y-90594239D03*
D13*
G04 #@! TO.N,Net-(D1-Pad2)*
G04 #@! TO.C,D1*
G36*
X158302909Y-89895443D02*
X158327177Y-89899043D01*
X158350976Y-89905004D01*
X158374075Y-89913269D01*
X158396254Y-89923759D01*
X158417297Y-89936371D01*
X158437003Y-89950986D01*
X158455181Y-89967462D01*
X158471657Y-89985640D01*
X158486272Y-90005346D01*
X158498884Y-90026389D01*
X158509374Y-90048568D01*
X158517639Y-90071667D01*
X158523600Y-90095466D01*
X158527200Y-90119734D01*
X158528404Y-90144238D01*
X158528404Y-91044240D01*
X158527200Y-91068744D01*
X158523600Y-91093012D01*
X158517639Y-91116811D01*
X158509374Y-91139910D01*
X158498884Y-91162089D01*
X158486272Y-91183132D01*
X158471657Y-91202838D01*
X158455181Y-91221016D01*
X158437003Y-91237492D01*
X158417297Y-91252107D01*
X158396254Y-91264719D01*
X158374075Y-91275209D01*
X158350976Y-91283474D01*
X158327177Y-91289435D01*
X158302909Y-91293035D01*
X158278405Y-91294239D01*
X157628403Y-91294239D01*
X157603899Y-91293035D01*
X157579631Y-91289435D01*
X157555832Y-91283474D01*
X157532733Y-91275209D01*
X157510554Y-91264719D01*
X157489511Y-91252107D01*
X157469805Y-91237492D01*
X157451627Y-91221016D01*
X157435151Y-91202838D01*
X157420536Y-91183132D01*
X157407924Y-91162089D01*
X157397434Y-91139910D01*
X157389169Y-91116811D01*
X157383208Y-91093012D01*
X157379608Y-91068744D01*
X157378404Y-91044240D01*
X157378404Y-90144238D01*
X157379608Y-90119734D01*
X157383208Y-90095466D01*
X157389169Y-90071667D01*
X157397434Y-90048568D01*
X157407924Y-90026389D01*
X157420536Y-90005346D01*
X157435151Y-89985640D01*
X157451627Y-89967462D01*
X157469805Y-89950986D01*
X157489511Y-89936371D01*
X157510554Y-89923759D01*
X157532733Y-89913269D01*
X157555832Y-89905004D01*
X157579631Y-89899043D01*
X157603899Y-89895443D01*
X157628403Y-89894239D01*
X158278405Y-89894239D01*
X158302909Y-89895443D01*
X158302909Y-89895443D01*
G37*
D14*
G04 #@! TD*
G04 #@! TO.P,D1,2*
G04 #@! TO.N,Net-(D1-Pad2)*
X157953404Y-90594239D03*
D15*
G04 #@! TO.N,GND*
X157928404Y-110294239D03*
X156928404Y-99694239D03*
X155928404Y-110294239D03*
G04 #@! TO.N,+3V3*
X155828404Y-104994239D03*
X158028404Y-104994239D03*
G04 #@! TO.N,Net-(D1-Pad2)*
X159928404Y-90594239D03*
G04 #@! TO.N,BOOT0*
X153928404Y-108494239D03*
G04 #@! TD*
D16*
G04 #@! TO.N,GND*
X162653404Y-103949239D02*
X165818404Y-100784239D01*
X159878404Y-103949239D02*
X162653404Y-103949239D01*
X158358404Y-110724239D02*
X157928404Y-110294239D01*
X158358404Y-117294239D02*
X158358404Y-110724239D01*
X155928404Y-110294239D02*
X155928404Y-107694239D01*
X155928404Y-107694239D02*
X157028404Y-106594239D01*
X157028404Y-106594239D02*
X157028404Y-103994239D01*
X157073404Y-103949239D02*
X159878404Y-103949239D01*
X157028404Y-103994239D02*
X157073404Y-103949239D01*
X156928404Y-103894239D02*
X156928404Y-99694239D01*
X157028404Y-103994239D02*
X156928404Y-103894239D01*
G04 #@! TO.N,+3V3*
X155433404Y-104599239D02*
X155828404Y-104994239D01*
X153978404Y-104599239D02*
X155433404Y-104599239D01*
X158423404Y-104599239D02*
X158028404Y-104994239D01*
X159878404Y-104599239D02*
X158423404Y-104599239D01*
X164543404Y-104599239D02*
X165818404Y-103324239D01*
X159878404Y-104599239D02*
X164543404Y-104599239D01*
X149313404Y-104599239D02*
X148038404Y-103324239D01*
X153978404Y-104599239D02*
X149313404Y-104599239D01*
G04 #@! TO.N,Net-(D1-Pad2)*
X159928404Y-90594239D02*
X157953404Y-90594239D01*
G04 #@! TO.N,SWCLK*
X159878404Y-116274239D02*
X160898404Y-117294239D01*
X159878404Y-107199239D02*
X159878404Y-116274239D01*
X165818404Y-112639239D02*
X165818404Y-113484239D01*
X160378404Y-107199239D02*
X165818404Y-112639239D01*
X159878404Y-107199239D02*
X160378404Y-107199239D01*
G04 #@! TO.N,SWDI0*
X161423404Y-106549239D02*
X165818404Y-110944239D01*
X159878404Y-106549239D02*
X161423404Y-106549239D01*
X156653405Y-108799238D02*
X156653405Y-110742240D01*
X156653405Y-110742240D02*
X155818404Y-111577241D01*
X159878404Y-106549239D02*
X158903404Y-106549239D01*
X155818404Y-111577241D02*
X155818404Y-116092158D01*
X158903404Y-106549239D02*
X156653405Y-108799238D01*
X155818404Y-116092158D02*
X155818404Y-117294239D01*
G04 #@! TO.N,NRST*
X148653404Y-105249239D02*
X148038404Y-105864239D01*
X153978404Y-105249239D02*
X148653404Y-105249239D01*
X154128403Y-116444240D02*
X153278404Y-117294239D01*
X154803403Y-115769240D02*
X154128403Y-116444240D01*
X154803403Y-110046238D02*
X154803403Y-115769240D01*
X153978404Y-105249239D02*
X154953404Y-105249239D01*
X154953404Y-105249239D02*
X155028405Y-105324240D01*
X155028405Y-105324240D02*
X155028405Y-109821236D01*
X155028405Y-109821236D02*
X154803403Y-110046238D01*
G04 #@! TO.N,PA2*
X153978404Y-102649239D02*
X152926417Y-102649239D01*
X150200000Y-99922822D02*
X150200000Y-97865835D01*
X152926417Y-102649239D02*
X150200000Y-99922822D01*
X148888403Y-96554238D02*
X148038404Y-95704239D01*
X150200000Y-97865835D02*
X148888403Y-96554238D01*
G04 #@! TO.N,BOOT0*
X153978404Y-107199239D02*
X153978404Y-108444239D01*
X149138404Y-113484239D02*
X153928404Y-108694239D01*
X153928404Y-108694239D02*
X153928404Y-108494239D01*
X153978404Y-108444239D02*
X153928404Y-108494239D01*
X148038404Y-113484239D02*
X149138404Y-113484239D01*
G04 #@! TO.N,PC14*
X152433404Y-106549239D02*
X148038404Y-110944239D01*
X153978404Y-106549239D02*
X152433404Y-106549239D01*
G04 #@! TO.N,PC15*
X150543404Y-105899239D02*
X148038404Y-108404239D01*
X153978404Y-105899239D02*
X150543404Y-105899239D01*
G04 #@! TO.N,PA0*
X151203404Y-103949239D02*
X148038404Y-100784239D01*
X153978404Y-103949239D02*
X151203404Y-103949239D01*
G04 #@! TO.N,PA1*
X148038404Y-98638404D02*
X148038404Y-98244239D01*
X152699239Y-103299239D02*
X148038404Y-98638404D01*
X153978404Y-103299239D02*
X152699239Y-103299239D01*
G04 #@! TO.N,PA3*
X148888403Y-94014238D02*
X148038404Y-93164239D01*
X153978404Y-101999239D02*
X152912828Y-101999239D01*
X152912828Y-101999239D02*
X150835000Y-99921411D01*
X150835000Y-99921411D02*
X150835000Y-95960835D01*
X150835000Y-95960835D02*
X148888403Y-94014238D01*
G04 #@! TO.N,PA4*
X151470000Y-94055835D02*
X148038404Y-90624239D01*
X151470000Y-99920000D02*
X151470000Y-94055835D01*
X152899239Y-101349239D02*
X151470000Y-99920000D01*
X153978404Y-101349239D02*
X152899239Y-101349239D01*
G04 #@! TO.N,PA5*
X159878404Y-101349239D02*
X160835761Y-101349239D01*
X164968405Y-91474238D02*
X165818404Y-90624239D01*
X160835761Y-101349239D02*
X162265000Y-99920000D01*
X162265000Y-99920000D02*
X162265000Y-94177643D01*
X162265000Y-94177643D02*
X164968405Y-91474238D01*
G04 #@! TO.N,PA6*
X160853404Y-101999239D02*
X163084989Y-99767654D01*
X163084989Y-99767654D02*
X163084989Y-95897654D01*
X163084989Y-95897654D02*
X164968405Y-94014238D01*
X159878404Y-101999239D02*
X160853404Y-101999239D01*
X164968405Y-94014238D02*
X165818404Y-93164239D01*
G04 #@! TO.N,PA7*
X165818404Y-95731596D02*
X165818404Y-95704239D01*
X159878404Y-102649239D02*
X160853404Y-102649239D01*
X163535000Y-99967643D02*
X163535000Y-98015000D01*
X160853404Y-102649239D02*
X163535000Y-99967643D01*
X163535000Y-98015000D02*
X165818404Y-95731596D01*
G04 #@! TO.N,PB1*
X160853404Y-103299239D02*
X165818404Y-98334239D01*
X165818404Y-98334239D02*
X165818404Y-98244239D01*
X159878404Y-103299239D02*
X160853404Y-103299239D01*
G04 #@! TO.N,PA9*
X165203404Y-105249239D02*
X165818404Y-105864239D01*
X159878404Y-105249239D02*
X165203404Y-105249239D01*
G04 #@! TO.N,PA10*
X163313404Y-105899239D02*
X165818404Y-108404239D01*
X159878404Y-105899239D02*
X163313404Y-105899239D01*
G04 #@! TD*
D17*
G04 #@! TO.N,GND*
G36*
X158695595Y-107882048D02*
X158905639Y-108022396D01*
X159118404Y-108064717D01*
X159118405Y-116019727D01*
X158715294Y-115852763D01*
X158485404Y-115974084D01*
X158485404Y-117167239D01*
X158505404Y-117167239D01*
X158505404Y-117421239D01*
X158485404Y-117421239D01*
X158485404Y-118614394D01*
X158715294Y-118735715D01*
X159125328Y-118565884D01*
X159553587Y-118175597D01*
X159614561Y-118045761D01*
X159827779Y-118364864D01*
X160318986Y-118693078D01*
X160752148Y-118779239D01*
X161044660Y-118779239D01*
X161477822Y-118693078D01*
X161969029Y-118364864D01*
X161981220Y-118346620D01*
X161990247Y-118392004D01*
X162130595Y-118602048D01*
X162340639Y-118742396D01*
X162588404Y-118791679D01*
X164288404Y-118791679D01*
X164536169Y-118742396D01*
X164746213Y-118602048D01*
X164886561Y-118392004D01*
X164935844Y-118144239D01*
X164935844Y-116444239D01*
X164886561Y-116196474D01*
X164746213Y-115986430D01*
X164536169Y-115846082D01*
X164288404Y-115796799D01*
X162588404Y-115796799D01*
X162340639Y-115846082D01*
X162130595Y-115986430D01*
X161990247Y-116196474D01*
X161981220Y-116241858D01*
X161969029Y-116223614D01*
X161477822Y-115895400D01*
X161044660Y-115809239D01*
X160752148Y-115809239D01*
X160638404Y-115831864D01*
X160638404Y-108534040D01*
X164418549Y-112314186D01*
X164370247Y-112386474D01*
X164320964Y-112634239D01*
X164320964Y-114334239D01*
X164370247Y-114582004D01*
X164510595Y-114792048D01*
X164720639Y-114932396D01*
X164968404Y-114981679D01*
X166668404Y-114981679D01*
X166718405Y-114971733D01*
X166718405Y-118884239D01*
X147138404Y-118884239D01*
X147138404Y-114971733D01*
X147188404Y-114981679D01*
X148888404Y-114981679D01*
X149136169Y-114932396D01*
X149346213Y-114792048D01*
X149486561Y-114582004D01*
X149535844Y-114334239D01*
X149535844Y-114132722D01*
X149686333Y-114032168D01*
X149728735Y-113968709D01*
X154192197Y-109505248D01*
X154268406Y-109473682D01*
X154268406Y-109489668D01*
X154255474Y-109498309D01*
X154087499Y-109749702D01*
X154043403Y-109971387D01*
X154043403Y-109971391D01*
X154028515Y-110046238D01*
X154043403Y-110121085D01*
X154043404Y-115454437D01*
X153644812Y-115853030D01*
X153424660Y-115809239D01*
X153132148Y-115809239D01*
X152698986Y-115895400D01*
X152207779Y-116223614D01*
X152008404Y-116522000D01*
X151809029Y-116223614D01*
X151317822Y-115895400D01*
X150884660Y-115809239D01*
X150592148Y-115809239D01*
X150158986Y-115895400D01*
X149667779Y-116223614D01*
X149339565Y-116714821D01*
X149224312Y-117294239D01*
X149339565Y-117873657D01*
X149667779Y-118364864D01*
X150158986Y-118693078D01*
X150592148Y-118779239D01*
X150884660Y-118779239D01*
X151317822Y-118693078D01*
X151809029Y-118364864D01*
X152008404Y-118066478D01*
X152207779Y-118364864D01*
X152698986Y-118693078D01*
X153132148Y-118779239D01*
X153424660Y-118779239D01*
X153857822Y-118693078D01*
X154349029Y-118364864D01*
X154548404Y-118066478D01*
X154747779Y-118364864D01*
X155238986Y-118693078D01*
X155672148Y-118779239D01*
X155964660Y-118779239D01*
X156397822Y-118693078D01*
X156889029Y-118364864D01*
X157102247Y-118045761D01*
X157163221Y-118175597D01*
X157591480Y-118565884D01*
X158001514Y-118735715D01*
X158231404Y-118614394D01*
X158231404Y-117421239D01*
X158211404Y-117421239D01*
X158211404Y-117167239D01*
X158231404Y-117167239D01*
X158231404Y-115974084D01*
X158001514Y-115852763D01*
X157591480Y-116022594D01*
X157163221Y-116412881D01*
X157102247Y-116542717D01*
X156889029Y-116223614D01*
X156578404Y-116016061D01*
X156578404Y-111892042D01*
X157137878Y-111332569D01*
X157201334Y-111290169D01*
X157333233Y-111092769D01*
X157369309Y-111038778D01*
X157404604Y-110861337D01*
X157413405Y-110817092D01*
X157413405Y-110817088D01*
X157428293Y-110742240D01*
X157413405Y-110667392D01*
X157413405Y-109114039D01*
X158675488Y-107851956D01*
X158695595Y-107882048D01*
X158695595Y-107882048D01*
G37*
X158695595Y-107882048D02*
X158905639Y-108022396D01*
X159118404Y-108064717D01*
X159118405Y-116019727D01*
X158715294Y-115852763D01*
X158485404Y-115974084D01*
X158485404Y-117167239D01*
X158505404Y-117167239D01*
X158505404Y-117421239D01*
X158485404Y-117421239D01*
X158485404Y-118614394D01*
X158715294Y-118735715D01*
X159125328Y-118565884D01*
X159553587Y-118175597D01*
X159614561Y-118045761D01*
X159827779Y-118364864D01*
X160318986Y-118693078D01*
X160752148Y-118779239D01*
X161044660Y-118779239D01*
X161477822Y-118693078D01*
X161969029Y-118364864D01*
X161981220Y-118346620D01*
X161990247Y-118392004D01*
X162130595Y-118602048D01*
X162340639Y-118742396D01*
X162588404Y-118791679D01*
X164288404Y-118791679D01*
X164536169Y-118742396D01*
X164746213Y-118602048D01*
X164886561Y-118392004D01*
X164935844Y-118144239D01*
X164935844Y-116444239D01*
X164886561Y-116196474D01*
X164746213Y-115986430D01*
X164536169Y-115846082D01*
X164288404Y-115796799D01*
X162588404Y-115796799D01*
X162340639Y-115846082D01*
X162130595Y-115986430D01*
X161990247Y-116196474D01*
X161981220Y-116241858D01*
X161969029Y-116223614D01*
X161477822Y-115895400D01*
X161044660Y-115809239D01*
X160752148Y-115809239D01*
X160638404Y-115831864D01*
X160638404Y-108534040D01*
X164418549Y-112314186D01*
X164370247Y-112386474D01*
X164320964Y-112634239D01*
X164320964Y-114334239D01*
X164370247Y-114582004D01*
X164510595Y-114792048D01*
X164720639Y-114932396D01*
X164968404Y-114981679D01*
X166668404Y-114981679D01*
X166718405Y-114971733D01*
X166718405Y-118884239D01*
X147138404Y-118884239D01*
X147138404Y-114971733D01*
X147188404Y-114981679D01*
X148888404Y-114981679D01*
X149136169Y-114932396D01*
X149346213Y-114792048D01*
X149486561Y-114582004D01*
X149535844Y-114334239D01*
X149535844Y-114132722D01*
X149686333Y-114032168D01*
X149728735Y-113968709D01*
X154192197Y-109505248D01*
X154268406Y-109473682D01*
X154268406Y-109489668D01*
X154255474Y-109498309D01*
X154087499Y-109749702D01*
X154043403Y-109971387D01*
X154043403Y-109971391D01*
X154028515Y-110046238D01*
X154043403Y-110121085D01*
X154043404Y-115454437D01*
X153644812Y-115853030D01*
X153424660Y-115809239D01*
X153132148Y-115809239D01*
X152698986Y-115895400D01*
X152207779Y-116223614D01*
X152008404Y-116522000D01*
X151809029Y-116223614D01*
X151317822Y-115895400D01*
X150884660Y-115809239D01*
X150592148Y-115809239D01*
X150158986Y-115895400D01*
X149667779Y-116223614D01*
X149339565Y-116714821D01*
X149224312Y-117294239D01*
X149339565Y-117873657D01*
X149667779Y-118364864D01*
X150158986Y-118693078D01*
X150592148Y-118779239D01*
X150884660Y-118779239D01*
X151317822Y-118693078D01*
X151809029Y-118364864D01*
X152008404Y-118066478D01*
X152207779Y-118364864D01*
X152698986Y-118693078D01*
X153132148Y-118779239D01*
X153424660Y-118779239D01*
X153857822Y-118693078D01*
X154349029Y-118364864D01*
X154548404Y-118066478D01*
X154747779Y-118364864D01*
X155238986Y-118693078D01*
X155672148Y-118779239D01*
X155964660Y-118779239D01*
X156397822Y-118693078D01*
X156889029Y-118364864D01*
X157102247Y-118045761D01*
X157163221Y-118175597D01*
X157591480Y-118565884D01*
X158001514Y-118735715D01*
X158231404Y-118614394D01*
X158231404Y-117421239D01*
X158211404Y-117421239D01*
X158211404Y-117167239D01*
X158231404Y-117167239D01*
X158231404Y-115974084D01*
X158001514Y-115852763D01*
X157591480Y-116022594D01*
X157163221Y-116412881D01*
X157102247Y-116542717D01*
X156889029Y-116223614D01*
X156578404Y-116016061D01*
X156578404Y-111892042D01*
X157137878Y-111332569D01*
X157201334Y-111290169D01*
X157333233Y-111092769D01*
X157369309Y-111038778D01*
X157404604Y-110861337D01*
X157413405Y-110817092D01*
X157413405Y-110817088D01*
X157428293Y-110742240D01*
X157413405Y-110667392D01*
X157413405Y-109114039D01*
X158675488Y-107851956D01*
X158695595Y-107882048D01*
G36*
X154968706Y-89355912D02*
X154790077Y-89534540D01*
X154693404Y-89767929D01*
X154693404Y-90308489D01*
X154852154Y-90467239D01*
X155776404Y-90467239D01*
X155776404Y-90447239D01*
X156030404Y-90447239D01*
X156030404Y-90467239D01*
X156050404Y-90467239D01*
X156050404Y-90721239D01*
X156030404Y-90721239D01*
X156030404Y-91770489D01*
X156189154Y-91929239D01*
X156604713Y-91929239D01*
X156838102Y-91832566D01*
X156993027Y-91677642D01*
X156993818Y-91678825D01*
X157284968Y-91873366D01*
X157628403Y-91941679D01*
X158278405Y-91941679D01*
X158621840Y-91873366D01*
X158912990Y-91678825D01*
X159107531Y-91387675D01*
X159114182Y-91354239D01*
X159224693Y-91354239D01*
X159342124Y-91471670D01*
X159722530Y-91629239D01*
X160134278Y-91629239D01*
X160514684Y-91471670D01*
X160805835Y-91180519D01*
X160963404Y-90800113D01*
X160963404Y-90388365D01*
X160805835Y-90007959D01*
X160514684Y-89716808D01*
X160134278Y-89559239D01*
X159722530Y-89559239D01*
X159342124Y-89716808D01*
X159224693Y-89834239D01*
X159114182Y-89834239D01*
X159107531Y-89800803D01*
X158912990Y-89509653D01*
X158621840Y-89315112D01*
X158567177Y-89304239D01*
X165120995Y-89304239D01*
X164747779Y-89553614D01*
X164419565Y-90044821D01*
X164304312Y-90624239D01*
X164377195Y-90990646D01*
X161780528Y-93587314D01*
X161717072Y-93629714D01*
X161674672Y-93693170D01*
X161674671Y-93693171D01*
X161549097Y-93881106D01*
X161490112Y-94177643D01*
X161505001Y-94252495D01*
X161505000Y-99605198D01*
X160628423Y-100481776D01*
X160603404Y-100476799D01*
X159153404Y-100476799D01*
X158905639Y-100526082D01*
X158695595Y-100666430D01*
X158555247Y-100876474D01*
X158505964Y-101124239D01*
X158505964Y-101574239D01*
X158525855Y-101674239D01*
X158505964Y-101774239D01*
X158505964Y-102224239D01*
X158525855Y-102324239D01*
X158505964Y-102424239D01*
X158505964Y-102874239D01*
X158525855Y-102974239D01*
X158505964Y-103074239D01*
X158505964Y-103524239D01*
X158519902Y-103594312D01*
X158518404Y-103597929D01*
X158518404Y-103677989D01*
X158541051Y-103700636D01*
X158555247Y-103772004D01*
X158588812Y-103822237D01*
X158518404Y-103822237D01*
X158518404Y-103839239D01*
X158498250Y-103839239D01*
X158423403Y-103824351D01*
X158348556Y-103839239D01*
X158348552Y-103839239D01*
X158126867Y-103883335D01*
X158013269Y-103959239D01*
X157822530Y-103959239D01*
X157442124Y-104116808D01*
X157150973Y-104407959D01*
X156993404Y-104788365D01*
X156993404Y-105200113D01*
X157150973Y-105580519D01*
X157442124Y-105871670D01*
X157822530Y-106029239D01*
X158234278Y-106029239D01*
X158443173Y-105942712D01*
X158355475Y-106001310D01*
X158313075Y-106064766D01*
X156168935Y-108208907D01*
X156105476Y-108251309D01*
X155937501Y-108502702D01*
X155893405Y-108724387D01*
X155893405Y-108724391D01*
X155878517Y-108799238D01*
X155893405Y-108874085D01*
X155893406Y-110427437D01*
X155563403Y-110757441D01*
X155563403Y-110377805D01*
X155576334Y-110369165D01*
X155744309Y-110117773D01*
X155788405Y-109896088D01*
X155788405Y-109896083D01*
X155803293Y-109821236D01*
X155788405Y-109746389D01*
X155788405Y-106029239D01*
X156034278Y-106029239D01*
X156414684Y-105871670D01*
X156705835Y-105580519D01*
X156863404Y-105200113D01*
X156863404Y-104788365D01*
X156705835Y-104407959D01*
X156414684Y-104116808D01*
X156034278Y-103959239D01*
X155843539Y-103959239D01*
X155729941Y-103883335D01*
X155508256Y-103839239D01*
X155508251Y-103839239D01*
X155433404Y-103824351D01*
X155358557Y-103839239D01*
X155350844Y-103839239D01*
X155350844Y-103724239D01*
X155330953Y-103624239D01*
X155350844Y-103524239D01*
X155350844Y-103074239D01*
X155330953Y-102974239D01*
X155350844Y-102874239D01*
X155350844Y-102424239D01*
X155330953Y-102324239D01*
X155350844Y-102224239D01*
X155350844Y-101774239D01*
X155330953Y-101674239D01*
X155350844Y-101574239D01*
X155350844Y-101124239D01*
X155301561Y-100876474D01*
X155161213Y-100666430D01*
X154951169Y-100526082D01*
X154703404Y-100476799D01*
X153253404Y-100476799D01*
X153126786Y-100501985D01*
X152230000Y-99605199D01*
X152230000Y-94130683D01*
X152244888Y-94055835D01*
X152230000Y-93980987D01*
X152230000Y-93980983D01*
X152185904Y-93759298D01*
X152017929Y-93507906D01*
X151954473Y-93465506D01*
X149479613Y-90990647D01*
X149501624Y-90879989D01*
X154693404Y-90879989D01*
X154693404Y-91420549D01*
X154790077Y-91653938D01*
X154968706Y-91832566D01*
X155202095Y-91929239D01*
X155617654Y-91929239D01*
X155776404Y-91770489D01*
X155776404Y-90721239D01*
X154852154Y-90721239D01*
X154693404Y-90879989D01*
X149501624Y-90879989D01*
X149552496Y-90624239D01*
X149437243Y-90044821D01*
X149109029Y-89553614D01*
X148735813Y-89304239D01*
X155093456Y-89304239D01*
X154968706Y-89355912D01*
X154968706Y-89355912D01*
G37*
X154968706Y-89355912D02*
X154790077Y-89534540D01*
X154693404Y-89767929D01*
X154693404Y-90308489D01*
X154852154Y-90467239D01*
X155776404Y-90467239D01*
X155776404Y-90447239D01*
X156030404Y-90447239D01*
X156030404Y-90467239D01*
X156050404Y-90467239D01*
X156050404Y-90721239D01*
X156030404Y-90721239D01*
X156030404Y-91770489D01*
X156189154Y-91929239D01*
X156604713Y-91929239D01*
X156838102Y-91832566D01*
X156993027Y-91677642D01*
X156993818Y-91678825D01*
X157284968Y-91873366D01*
X157628403Y-91941679D01*
X158278405Y-91941679D01*
X158621840Y-91873366D01*
X158912990Y-91678825D01*
X159107531Y-91387675D01*
X159114182Y-91354239D01*
X159224693Y-91354239D01*
X159342124Y-91471670D01*
X159722530Y-91629239D01*
X160134278Y-91629239D01*
X160514684Y-91471670D01*
X160805835Y-91180519D01*
X160963404Y-90800113D01*
X160963404Y-90388365D01*
X160805835Y-90007959D01*
X160514684Y-89716808D01*
X160134278Y-89559239D01*
X159722530Y-89559239D01*
X159342124Y-89716808D01*
X159224693Y-89834239D01*
X159114182Y-89834239D01*
X159107531Y-89800803D01*
X158912990Y-89509653D01*
X158621840Y-89315112D01*
X158567177Y-89304239D01*
X165120995Y-89304239D01*
X164747779Y-89553614D01*
X164419565Y-90044821D01*
X164304312Y-90624239D01*
X164377195Y-90990646D01*
X161780528Y-93587314D01*
X161717072Y-93629714D01*
X161674672Y-93693170D01*
X161674671Y-93693171D01*
X161549097Y-93881106D01*
X161490112Y-94177643D01*
X161505001Y-94252495D01*
X161505000Y-99605198D01*
X160628423Y-100481776D01*
X160603404Y-100476799D01*
X159153404Y-100476799D01*
X158905639Y-100526082D01*
X158695595Y-100666430D01*
X158555247Y-100876474D01*
X158505964Y-101124239D01*
X158505964Y-101574239D01*
X158525855Y-101674239D01*
X158505964Y-101774239D01*
X158505964Y-102224239D01*
X158525855Y-102324239D01*
X158505964Y-102424239D01*
X158505964Y-102874239D01*
X158525855Y-102974239D01*
X158505964Y-103074239D01*
X158505964Y-103524239D01*
X158519902Y-103594312D01*
X158518404Y-103597929D01*
X158518404Y-103677989D01*
X158541051Y-103700636D01*
X158555247Y-103772004D01*
X158588812Y-103822237D01*
X158518404Y-103822237D01*
X158518404Y-103839239D01*
X158498250Y-103839239D01*
X158423403Y-103824351D01*
X158348556Y-103839239D01*
X158348552Y-103839239D01*
X158126867Y-103883335D01*
X158013269Y-103959239D01*
X157822530Y-103959239D01*
X157442124Y-104116808D01*
X157150973Y-104407959D01*
X156993404Y-104788365D01*
X156993404Y-105200113D01*
X157150973Y-105580519D01*
X157442124Y-105871670D01*
X157822530Y-106029239D01*
X158234278Y-106029239D01*
X158443173Y-105942712D01*
X158355475Y-106001310D01*
X158313075Y-106064766D01*
X156168935Y-108208907D01*
X156105476Y-108251309D01*
X155937501Y-108502702D01*
X155893405Y-108724387D01*
X155893405Y-108724391D01*
X155878517Y-108799238D01*
X155893405Y-108874085D01*
X155893406Y-110427437D01*
X155563403Y-110757441D01*
X155563403Y-110377805D01*
X155576334Y-110369165D01*
X155744309Y-110117773D01*
X155788405Y-109896088D01*
X155788405Y-109896083D01*
X155803293Y-109821236D01*
X155788405Y-109746389D01*
X155788405Y-106029239D01*
X156034278Y-106029239D01*
X156414684Y-105871670D01*
X156705835Y-105580519D01*
X156863404Y-105200113D01*
X156863404Y-104788365D01*
X156705835Y-104407959D01*
X156414684Y-104116808D01*
X156034278Y-103959239D01*
X155843539Y-103959239D01*
X155729941Y-103883335D01*
X155508256Y-103839239D01*
X155508251Y-103839239D01*
X155433404Y-103824351D01*
X155358557Y-103839239D01*
X155350844Y-103839239D01*
X155350844Y-103724239D01*
X155330953Y-103624239D01*
X155350844Y-103524239D01*
X155350844Y-103074239D01*
X155330953Y-102974239D01*
X155350844Y-102874239D01*
X155350844Y-102424239D01*
X155330953Y-102324239D01*
X155350844Y-102224239D01*
X155350844Y-101774239D01*
X155330953Y-101674239D01*
X155350844Y-101574239D01*
X155350844Y-101124239D01*
X155301561Y-100876474D01*
X155161213Y-100666430D01*
X154951169Y-100526082D01*
X154703404Y-100476799D01*
X153253404Y-100476799D01*
X153126786Y-100501985D01*
X152230000Y-99605199D01*
X152230000Y-94130683D01*
X152244888Y-94055835D01*
X152230000Y-93980987D01*
X152230000Y-93980983D01*
X152185904Y-93759298D01*
X152017929Y-93507906D01*
X151954473Y-93465506D01*
X149479613Y-90990647D01*
X149501624Y-90879989D01*
X154693404Y-90879989D01*
X154693404Y-91420549D01*
X154790077Y-91653938D01*
X154968706Y-91832566D01*
X155202095Y-91929239D01*
X155617654Y-91929239D01*
X155776404Y-91770489D01*
X155776404Y-90721239D01*
X154852154Y-90721239D01*
X154693404Y-90879989D01*
X149501624Y-90879989D01*
X149552496Y-90624239D01*
X149437243Y-90044821D01*
X149109029Y-89553614D01*
X148735813Y-89304239D01*
X155093456Y-89304239D01*
X154968706Y-89355912D01*
G36*
X165945404Y-100657239D02*
X165965404Y-100657239D01*
X165965404Y-100911239D01*
X165945404Y-100911239D01*
X165945404Y-100931239D01*
X165691404Y-100931239D01*
X165691404Y-100911239D01*
X165671404Y-100911239D01*
X165671404Y-100657239D01*
X165691404Y-100657239D01*
X165691404Y-100637239D01*
X165945404Y-100637239D01*
X165945404Y-100657239D01*
X165945404Y-100657239D01*
G37*
X165945404Y-100657239D02*
X165965404Y-100657239D01*
X165965404Y-100911239D01*
X165945404Y-100911239D01*
X165945404Y-100931239D01*
X165691404Y-100931239D01*
X165691404Y-100911239D01*
X165671404Y-100911239D01*
X165671404Y-100657239D01*
X165691404Y-100657239D01*
X165691404Y-100637239D01*
X165945404Y-100637239D01*
X165945404Y-100657239D01*
G04 #@! TD*
M02*
